<svg id="images-ic-location" xmlns="http://www.w3.org/2000/svg" width="45" height="45" viewBox="0 0 45 45">
    <g fill="#FFF" fill-rule="evenodd">
        <rect width="45" height="45" fill-opacity=".1" rx="4"/>
        <path fill-rule="nonzero" stroke="#FFF" stroke-width=".735" d="M22.347 11.195c-4.052 0-7.347 3.23-7.347 7.202 0 .71.111 1.394.306 2.04.196.65.695 1.635 1.347 2.83.653 1.194 1.453 2.57 2.235 3.878 1.564 2.614 3.046 4.951 3.046 4.951.09.139.246.223.413.223.168 0 .324-.084.414-.223 0 0 1.482-2.337 3.046-4.951.782-1.308 1.582-2.684 2.234-3.879.653-1.194 1.151-2.179 1.347-2.828.195-.647.306-1.33.306-2.04 0-3.973-3.295-7.203-7.347-7.203zm0 .96c3.523 0 6.368 2.79 6.368 6.242 0 .615-.09 1.208-.26 1.77-.138.457-.628 1.465-1.27 2.642-.643 1.176-1.442 2.547-2.22 3.848-1.344 2.246-2.292 3.737-2.618 4.254-.325-.517-1.274-2.008-2.617-4.254-.778-1.3-1.577-2.672-2.22-3.848-.642-1.177-1.133-2.185-1.27-2.641-.17-.563-.26-1.156-.26-1.77 0-3.454 2.845-6.242 6.367-6.242zm0 2.881c-1.888 0-3.428 1.51-3.428 3.361 0 1.85 1.54 3.361 3.428 3.361s3.429-1.51 3.429-3.36c0-1.851-1.54-3.362-3.429-3.362zm0 .96c1.359 0 2.45 1.07 2.45 2.401 0 1.332-1.091 2.401-2.45 2.401-1.358 0-2.449-1.07-2.449-2.4 0-1.332 1.09-2.401 2.45-2.401z"/>
    </g>
</svg>
