<svg id="images-img-map-retail" xmlns="http://www.w3.org/2000/svg" width="569" height="336" viewBox="0 0 569 336">
    <g fill="none" fill-rule="evenodd">
        <path fill="#212121" fill-rule="nonzero" d="M467.186 198.918L459.666 201.457 457.415 198.816 456.322 199.116 458.363 206.991 461.418 207.333 465.494 208.876 465.494 210.418 467.36 210.076 470.079 206.313 470.079 203.234 471.61 200.155 473.308 200.497 471.268 196.217 470.956 193.462 468.573 193.708zM511.014 222.717L513.126 222.603 515.905 219.355 518.24 219.469 519.741 220.814 520.239 224.955 525.017 227.476 526.241 227.026 526.241 225.514 522.406 222.32 520.515 217.951 522.015 217.225 520.905 214.818 518.684 214.764 518.126 212.189 512.238 208.216 511.236 208.047zM84.822 143.435L83.471 144.191 83.621 146.004 86.172 147.966 86.172 151.598 89.323 154.623 87.973 145.704 86.172 139.803 86.622 135.722 88.123 135.872 88.723 137.235 88.123 140.71 95.926 155.979 95.926 161.423 102.228 168.83 109.13 172.005 111.981 170.342 116.033 173.667 118.434 171.249 117.383 168.524 120.834 167.467 121.885 168.073 122.935 167.017 124.586 167.017 127.587 161.723 126.086 160.361 120.234 161.723 118.884 165.655 115.433 166.261 111.381 164.598 109.581 158.854 110.943 151.61 108.158 149.875 106.832 142.919 105.721 142.444 103.692 144.503 101.364 143.261 100.451 138.621 91.226 137.655 86.46 134.071 81.923 134.306zM306.81 85.106L304.679 86.409 304.649 87.375 306.03 88.678 310.321 89.404 310.171 85.226zM281.379 134.72L271.187 136.634 268.967 138.321 270.323 145.325 266.272 145.487 263.835 149.407 258.031 150.799 258.049 153.65 277.165 168.265 280.425 168.542 291.294 160.049 290.208 158.68 288.167 158.404 286.943 156.351 286.943 147.858 286.127 147.036 286.265 144.845 284.092 142.654 283.822 140.326 284.77 139.641 284.362 137.175 283.828 135.542z"/>
        <path fill="#212121" fill-rule="nonzero" d="M261.536 138.417L260.179 141.43 257.052 142.937 254.471 149.923 249.442 152.936 242.377 164.574 249.31 164.436 249.58 161.015 251.344 161.015 251.344 156.357 257.46 156.357 257.599 150.331 263.445 148.963 265.893 144.989 269.699 144.851 268.468 138.417z"/>
        <path fill="#212121" fill-rule="nonzero" d="M243.734 166.765L243.464 174.16 245.366 172.791 246.723 172.515 248.625 173.199 250.798 176.212 252.839 174.844 262.76 174.706 260.311 158.134 262.94 158.122 258.043 154.371 258.049 156.807 251.849 156.813 251.819 161.465 250.036 161.459 249.808 164.892 242.425 165.054z"/>
        <path fill="#212121" fill-rule="nonzero" d="M243.193 174.97L242.653 175.93 242.485 176.891 243.356 177.515 246.261 177.473 248.127 176.969 248.337 177.887 248.169 179.099 249.952 179.976 250.324 180.396 252.689 180.48 252.773 179.435 250.612 176.843 248.205 173.583 246.711 172.959 245.558 173.253z"/>
        <path fill="#212121" fill-rule="nonzero" d="M243.542 178.733L247.695 178.673 247.905 178.055 247.815 177.431 246.621 177.917 243.62 178.067zM244.304 181.002L244.718 179.886 249.766 180.414 247.581 179.291 243.56 179.195z"/>
        <path fill="#212121" fill-rule="nonzero" d="M245.486 183.445L247.845 181.416 247.869 180.792 245.09 180.39 244.646 181.782z"/>
        <path fill="#212121" fill-rule="nonzero" d="M247.563 186.638L249.94 184.573 252.377 184.465 254.405 187.16 256.128 188.295 256.776 187.034 257.352 186.71 257.31 183.937 256.164 180.648 252.647 181.038 248.295 180.69 248.271 181.806 245.738 183.829z"/>
        <path fill="#212121" fill-rule="nonzero" d="M251.236 190.221L253.655 187.286 252.143 184.915 250.06 185.125 247.845 186.944zM258.181 194.987L258.025 191.65 256.032 189.303 254.087 187.58 251.59 190.581z"/>
        <path fill="#212121" fill-rule="nonzero" d="M261.302 193.3L264.495 192.742 267.754 193.444 266.092 190.929 265.605 189.393 266.092 184.849 263.181 184.987 261.86 183.727 259.087 183.799 257.767 184.009 257.905 187.082 257.208 187.364 256.374 188.901 258.523 191.416 258.733 195.119zM253.013 175.3L263.289 175.24 260.912 158.71 263.625 158.632 276.751 168.65 278.516 168.902 277.85 174.472 269.597 175.222 263.229 179.976 262.07 183.229 257.647 183.415 256.518 180.168 253.127 180.408 253.259 179.345 251.164 176.566z"/>
        <path fill="#212121" fill-rule="nonzero" d="M272.034 175.456L275.617 180.522 272.292 183.031 269.885 182.412 266.65 182.454 266.128 184.351 263.415 184.483 262.67 183.469 263.631 180.384 269.849 175.63zM277.562 180.228L278.942 178.157 281.259 177.743 283.726 179.249 288.99 179.399 293.059 177.743 294.59 176.428 294.704 174.7 297.543 171.837 298.293 165.517 296.426 161.603 291.649 160.439 280.593 169.058 279.026 168.908 278.354 174.892 272.712 175.456 276.031 180.264z"/>
        <path fill="#212121" fill-rule="nonzero" d="M266.77 190.875L268.522 193.624 269.495 193.588 272.148 192.082 271.962 183.505 269.909 182.905 267.034 182.983 266.098 189.297zM274.236 190.875L274.2 184.663 273.156 182.971 272.484 183.535 272.628 191.818z"/>
        <path fill="#212121" fill-rule="nonzero" d="M275.995 190.761L276.067 187.148 277.676 184.813 277.604 180.75 276.145 180.714 273.642 182.671 274.687 184.663 274.723 190.761z"/>
        <path fill="#212121" fill-rule="nonzero" d="M278.792 190.803L281.631 193.967 283.011 194.345 284.092 193.816 285.736 193.588 286.295 191.296 288.533 189.825 290.958 189.711 295.4 181.542 295.328 179.7 293.275 178.121 289.17 179.928 283.678 179.85 281.061 178.193 279.194 178.607 278.222 180.3 278.15 185.077 276.583 187.298 276.439 190.689zM287.765 134.107L288.858 134.816 288.9 135.68 288.389 136.346 288.467 137.529 288.978 137.805 288.978 139.93 288.389 140.914 288.467 141.544 290.694 142.33 288.9 145.121 288.197 145.079 288.077 147.324 287.297 147.444 286.631 146.856 286.787 144.575 284.602 142.45 284.326 140.602 285.382 139.773 284.446 135.446z"/>
        <path fill="#212121" fill-rule="nonzero" d="M288.467 147.714L288.743 145.554 289.212 145.554 291.126 142.408 295.85 143.783 297.14 145.788 301.786 147.912 304.205 146.892 303.971 145.872 302.914 144.851 303.035 144.143 304.751 142.691 308.148 142.691 309.439 144.419 312.17 144.815 312.524 166.957 310.495 166.879 298.239 160.505 296.912 161.255 291.877 159.995 290.508 158.188 288.515 157.912 287.501 156.105 287.531 147.87zM314.27 144.929L317.392 145.794 318.874 145.836 320.711 144.299 321.569 144.299 323.13 145.163 325.104 145.163 325.458 145.139 326.707 148.729 327.061 149.887 327.391 151.622 326.803 152.054 325.789 151.544 324.618 147.726 323.562 147.648 323.484 148.945 324.186 151.189 329.81 158.152 329.93 161.141 328.291 163.032 312.902 162.858 312.668 144.887z"/>
        <path fill="#212121" fill-rule="nonzero" d="M295.256 174.892L298.101 172.125 298.863 165.33 296.966 161.705 298.293 161.027 311.137 167.719 311.059 174.286 308.797 176.212 308.797 179.597 310.279 182.466 307.662 182.466 303.329 186.752 303.215 188.048 300.015 188.006 299.973 188.595 298.149 188.355 296.9 185.996 295.964 185.534 296.084 184.813 297.26 183.913 297.26 179.7 295.634 179.447 293.671 177.989 295.178 176.662zM328.966 185.269L327.199 182.302 327.014 180.144 326.59 180.225 326.475 180.89 324.16 184.272 322.312 183.39 320.469 184.934 316.657 184.715 314.97 183.367 312.549 184.606 312.458 185.431 311.719 185.875 319.114 193.486 323.142 193.715 323.729 194.609 329.492 194.711 329.539 193.42 330.032 192.526 331.953 192.28 329.558 188.805 327.794 188.805 327.344 186.337 328.76 185.714z"/>
        <path fill="#212121" fill-rule="nonzero" d="M330.716 161.423L328.502 163.656 313.016 163.518 313.184 167.461 311.708 167.419 311.6 174.52 309.361 176.447 309.27 179.411 310.886 182.599 312.656 183.643 312.629 183.892 315.042 182.656 316.882 184.126 320.266 184.321 322.222 182.683 323.954 183.509 325.905 180.659 326.069 179.713 327.556 179.43 327.787 182.114 329.273 184.611 332.877 176.861 332.877 172.149 335.494 169.064zM288.125 195.413L287.987 198.162 298.587 197.916 299.451 196.944 296.414 193.672 295.964 192.49 297.897 188.871 296.582 186.47 295.478 185.876 295.478 184.657 296.756 183.823 296.828 180.03 295.814 179.916 295.796 181.908 291.342 190.221 288.617 190.359 286.751 191.644 286.193 193.636z"/>
        <path fill="#212121" fill-rule="nonzero" d="M333.393 172.347L335.77 169.574 336.412 170.066 337.583 173.98 343.201 178.163 342.18 179.417 338.069 175.882 333.543 175.882zM342.066 182.004L344.443 181.968 344.479 179.003 343.609 178.469 342.408 179.988z"/>
        <path fill="#212121" fill-rule="nonzero" d="M333.579 176.398L337.919 176.422 341.766 179.766 341.496 182.521 344.479 182.521 344.785 184.177 349.611 187.064 352.588 187.214 346.928 193.294 339.155 195.689 337.229 195.689 333.795 192.76 332.439 192.19 329.81 188.319 328.075 188.343 327.871 186.566 329.21 186.122z"/>
        <path fill="#212121" fill-rule="nonzero" d="M347.414 183.757L348.14 183.721 354.221 181.632 354.911 183.859 354.425 185.738 353.11 186.782 349.827 186.572 345.127 183.685 344.965 182.088zM360.577 180.282L362.305 179.237 362.93 179.027 362.137 178.259 360.619 178.709 359.298 178.853z"/>
        <path fill="#212121" fill-rule="nonzero" d="M357.33 180.486L358.26 181.044 358.158 183.373 355.739 190.263 342.648 204.284 341.13 203.24 341.028 197.322 342.997 195.059 347.174 193.768 353.302 187.298 354.905 185.87 355.355 183.781 354.707 181.494zM299.697 196.523L300.802 195.095 302.56 195.167 302.938 193.774 304.667 192.694 308.256 195.167 310.327 193.114 318.364 193.468 310.909 185.774 311.912 185.149 312.05 183.793 310.357 182.995 307.872 182.995 303.869 186.962 303.731 188.595 300.556 188.493 300.454 189.189 298.383 188.979 296.516 192.526 296.9 193.498zM282.633 201.013L283.15 201.433 282.633 202.231 282.009 201.985 281.943 201.361zM284.368 198.996L284.716 199.657 284.2 200.215 283.684 200.143 283.33 199.17zM285.328 196.697L286.157 197.148 286.949 196.553 286.673 195.335 285.604 195.515zM291.264 200.143L287.879 200.071 285.808 204.074 290.676 209.398 291.883 208.39 291.847 207.345 291.018 206.961 291.018 206.229 292.885 205.046 294.542 206.301 296.372 206.337 296.336 200.041 293.437 199.903 293.401 198.582 291.336 198.648z"/>
        <path fill="#212121" fill-rule="nonzero" d="M288.059 199.518L290.784 199.657 290.748 198.714 288.095 198.684zM294.067 199.452L296.936 199.524 297.038 206.973 294.415 206.901 292.897 205.719 291.721 206.379 291.667 206.709 292.273 207.003 292.447 208.534 290.826 209.926 291.174 210.658 292.969 209.266 293.833 209.266 294.109 210.1 295.25 210.586 298.911 207.489 298.839 205.226 299.601 203.384 301.948 201.643 302.578 195.755 300.91 195.761 298.977 198.408 294.103 198.582z"/>
        <path fill="#212121" fill-rule="nonzero" d="M292.477 212.369L293.827 211.091 293.431 209.764 293.095 209.74 291.432 211.013zM299.319 212.393L300.574 214.176 300.526 215.49 300.988 215.91 304.061 215.91 304.943 214.176 306.198 214.176 306.708 214.692 308.43 214.644 308.941 220.694 311.918 220.79 311.918 221.258 319.918 224.865 320.291 225.568 321.965 225.568 321.779 223.035 318.754 221.582 318.94 219.662 320.243 216.612 323.22 216.516 320.663 208.029 320.711 204.422 324.756 198.096 324.804 197.208 324.198 196.878 324.222 195.161 323.484 195.095 322.739 194.147 310.525 193.594 308.286 195.773 304.619 193.36 303.329 194.153 302.392 202.033 300.075 203.822 299.379 205.407 299.505 207.753 295.328 211.169 294.217 210.664 294.367 211.319 293.131 212.501z"/>
        <path fill="#212121" fill-rule="nonzero" d="M323.892 204.566L323.82 206.229 321.203 206.283 321.203 204.446 322.205 203.012zM323.802 206.745L323.136 208.99 322.487 209.554 321.695 209.554 321.131 208.035 321.239 206.799zM324.312 204.23L325.452 203.504 328.537 203 329.066 203.054 329.264 201.883 331.004 198.222 329.54 195.173 324.792 195.203 324.762 196.457 325.398 197.07 325.302 198.324 322.493 202.526z"/>
        <path fill="#212121" fill-rule="nonzero" d="M331.611 198.096L329.696 202.111 329.444 203.33 339.005 209.242 341.97 204.584 340.47 203.366 340.44 197.232 342.318 195.179 339.323 196.175 337.06 196.205 333.519 193.216 332.403 192.736 330.332 192.928 329.966 193.54 330.014 194.981zM340.344 220.646L337.985 216.084 337.859 211.715 338.621 209.626 328.646 203.36 325.518 203.876 324.432 204.68 324.336 206.511 323.634 209.05 322.901 209.92 321.851 210.016 323.862 216.985 327.145 218.527 329.408 218.593 329.858 221.93z"/>
        <path fill="#212121" fill-rule="nonzero" d="M310.141 232.542L313.088 232.722 314.132 233.298 317.217 233.334 319.876 229.607 327.307 226.282 327.955 223.353 327.091 219.157 323.214 216.949 320.627 217.129 319.336 219.986 319.372 221.288 322.421 222.771 322.601 225.994 319.978 226.138 319.33 225.051 312.044 221.942 311.828 224.331 308.382 224.439 308.238 229.901z"/>
        <path fill="#212121" fill-rule="nonzero" d="M294.722 220.742L294.674 223.155 291.679 226.372 291.228 231.6 302.752 231.702 306.498 233.058 309.589 232.656 307.788 230.399 307.794 223.953 311.335 223.803 311.335 221.288 308.46 221.168 307.884 215.214 306.672 215.232 306.018 214.644 305.303 214.68 304.355 216.516 300.706 216.516 299.859 215.664 300.111 214.458 299.115 212.999 292.675 213.101zM329.678 228.671L329.642 231.168 330.002 232.218 332.481 229.541 332.193 226.138 330.866 225.123 329.684 219.151 327.637 219.079 328.567 223.383 327.811 226.72z"/>
        <path fill="#212121" fill-rule="nonzero" d="M325.831 248.394L329.636 246.077 330.248 242.638 330.248 236.96 336.352 231.966 337.397 232.002 341.094 228.455 340.518 221.144 330.716 222.381 331.004 224.589 332.691 225.892 333.087 229.871 329.786 233.094 328.994 231.288 329.138 228.899 327.235 226.834 322.565 229.007 326.911 231.216 327.055 237.656 324.18 241.923 324.216 247.055z"/>
        <path fill="#212121" fill-rule="nonzero" d="M319.69 240.543L323.82 241.593 326.587 237.254 326.371 231.504 321.881 229.187 320.195 229.949 317.68 233.785 314.198 233.749 314.306 234.463zM299.445 252.409L300.628 253.603 303.431 253.64 304.115 245.681 304.115 240.471 305.91 240.111 306.594 234.649 311.155 234.505 312.77 233.166 310.039 233.058 306.342 233.562 302.356 232.116 291.156 232.116 291.444 235.297 295.178 240.795 294.53 243.616 294.566 245.099 297.435 252.265z"/>
        <path fill="#212121" fill-rule="nonzero" d="M305.904 246.221L305.723 249.912 307.05 250.092 310.099 247.343 313.76 247.739 314.733 245.279 319.366 241.047 313.802 234.643 313.73 233.592 313.118 233.412 311.431 234.967 307.05 235.075 306.438 240.537 304.715 240.933 304.613 245.825zM322.529 247.739L321.881 249.51 323.034 250.56 324.432 250.56 325.614 248.862 324.036 247.487zM317.788 252.913L318.652 252.949 319.696 254.252 319.588 255.554 317.83 256.202 317.83 256.707 315.891 256.599 315.423 255.188 315.957 254.324z"/>
        <path fill="#212121" fill-rule="nonzero" d="M315.267 245.645l-1.129 2.707-3.757-.469-3.127 2.78-2.077-.205.168-3.841-.738-.258-.516 7.857-3.685-.036-1.11-1.309-1.627-.018 1.482 4.256 2.647 2.503-1.89 2.202 1.224 2.761 2.833 1.08 2.257-1.92 6.464.036.462-.576 2.87-.504 9.704-9.664-.036-3.043-1.038 1.345h-1.554l-1.891-1.585.96-2.389 1.65-.336-.15-4.91-3.655-.846-4.741 4.382zm3.373 6.686l1.47 1.597-.041 1.848-1.723.87-.108.613-2.63.03-.821-1.98.75-1.453 2.197-1.489.906-.036zM191.329 30.355L192.8 31.826 192.146 33.296 194.27 36.069 196.881 35.253 200.308 34.929 204.228 39.172 206.839 46.189 204.72 50.594 207.655 50.102 209.288 51.08 209.45 53.205 205.86 53.367 207.817 55.324 210.266 55.816 204.882 62.994 204.228 67.4 205.368 70.989 204.552 73.114 206.022 77.682 208.795 80.785 209.612 80.623 211.406 80.131 211.568 82.741 212.709 84.374 214.828 84.212 216.46 78.174 221.358 72.136 228.704 69.201 233.272 63.487 235.391 64.465 239.796 64.465 243.386 60.876 247.791 59.081 248.283 56.308 245.51 53.859 243.061 53.043 241.753 49.616 244.856 47.821 249.754 50.432 251.386 48.637 248.775 47.167 254.327 39.658 253.349 36.393 250.738 36.231 251.716 33.296 254.982 31.826 261.674 25.949 259.717 23.831 252.209 24.485 248.289 28.404 250.576 23.345 247.965 22.69 246.495 25.301 244.376 23.507 238.5 24.161 240.132 21.55 249.76 21.226 247.311 17.961 236.867 16.004 232.624 16.658 232.786 18.783 228.38 17.312 228.542 15.842 225.439 16.496 224.785 18.129 228.05 19.269 224.623 21.718 222.174 18.945 218.747 17.967 218.255 20.578 214.828 20.578 213.519 17.805 208.135 16.988 205.2 18.459 205.038 20.416 201.287 19.923 199 20.902 199.162 23.189 199.162 24.329 194.919 25.145 192.962 23.843 191.653 25.961 193.61 28.086 197.691 27.594 198.016 28.903 194.913 30.373 192.146 29.053z"/>
        <path fill="#212121" fill-rule="nonzero" d="M206.184 55.984L205.692 57.779 204.714 57.779 203.405 56.308 203.73 55.168 205.206 54.514zM248.781 51.248L248.619 53.535 245.684 52.065 245.03 51.248 246.008 50.432zM189.715 333.3L189.385 334.83 192.242 334.41 191.209 332.999zM191.827 330.983L192.17 332.369 194.354 332.291 193.622 330.641zM196.485 335.556L197.715 335.61 198.712 334.026 196.473 333.42zM195.771 327.97L195.441 329.194 196.563 329.602 198.448 328.306 197.067 327.459z"/>
        <path fill="#EB7227" fill-rule="nonzero" d="M456.052 271.112L453.711 272.828 453.501 274.329 456.695 276.472 464.575 274.971 468.621 274.971 470.109 272.822 479.052 271.106 485.439 273.038 485.012 275.613 485.865 278.188 490.762 277.33 490.973 278.614 487.779 280.973 488.842 281.831 491.183 280.973 490.546 288.056 495.018 291.489 497.575 290.631 498.853 291.915 506.308 290.841 513.336 279.467 515.893 278.824 521.001 269.383 522.28 261.232 519.086 257.157 520.365 256.298 517.808 248.358 515.041 246.425 515.467 235.699 512.91 233.767 512.274 227.758 510.996 227.758 506.734 241.917 504.393 242.133 499.069 236.768 502.052 228.827 496.519 227.752 490.342 229.469 488.638 234.403 485.871 235.045 485.661 231.612 474.377 238.478 474.587 241.053 472.882 243.412 468.621 243.412 459.461 247.271 456.262 255.878zM493.956 301.152L494.166 304.153 497.359 303.937 500.978 298.361 495.018 296.861z"/>
        <path fill="#212121" fill-rule="nonzero" d="M548.041 295.36L547.188 298.577 543.995 300.936 544.205 303.727 544.205 306.728 545.058 307.803 553.791 300.294 553.791 298.577 551.66 298.577 548.677 288.494 547.404 288.278zM542.723 306.944L538.035 311.452 537.609 313.811 534.416 314.237 529.092 319.171 524.194 316.812 523.768 315.095 532.711 311.236 541.018 303.727zM543.365 252.445L546.132 256.304 547.62 256.947 547.831 255.446 543.575 251.371zM432.872 190.977L436.948 197.826 438.136 197.826 446.629 212.033 450.026 212.375 451.725 207.411 449.006 205.701 448.496 202.964 433.04 189.609zM459.858 200.917L466.808 198.51 468.183 193.204 471.28 192.982 474.113 190.929 470.439 188.253 469.599 186.782 467.786 190.125 468.453 192.046 467.348 193.648 465.266 193.114 460.218 196.818 460.35 198.96 458.045 198.822z"/>
        <path fill="#212121" fill-rule="nonzero" d="M465.698 192.712L467.114 193.156 467.912 192.04 467.426 190.617zM474.641 210.202L473.759 212.699 473.759 213.173 475.763 213.173 476.471 206.931 477.12 207.111 478.296 212.813 479.419 213.113 480.481 210.676 479.419 206.991 478.536 205.389 481.309 203.366 480.661 202.472 478.008 204.194 477.3 204.194 476.003 202.291 476.417 201.457 478.602 200.389 481.903 201.397 482.906 201.337 485.385 199.02 484.382 198.012 482.083 199.795 480.607 199.795 478.368 198.726 476.778 198.786 475.007 201.637 473.885 206.571 473.284 208.54zM486.963 200.101L488.734 202.417 489.322 202.417 490.09 200.875 490.504 200.341 489.736 199.506 488.614 199.092 488.086 197.37zM489.148 206.877L488.44 207.651 489.028 208.66 490.618 208.065 491.621 207.471 493.097 208.66 493.746 208.126 492.569 206.697 491.567 206.343zM449.81 215.196L450.164 216.144 455.416 217.333 458.069 217.807 459.191 218.995 462.198 219.235 463.615 220.424 464.911 220.124 466.094 219.055 463.909 218.047 462.024 216.444 457.127 215.256 451.461 214.068zM467.33 219.95L468.099 220.784 469.983 220.07 468.627 219.235zM471.1 219.83L472.456 220.184 472.984 219.53 472.396 218.635 470.866 218.701zM472.462 221.912L473.939 223.161 475.115 223.161 474.113 221.672zM474.227 220.424L476.88 220.838 478.944 219.65 477.768 219.295 475.883 219.83 475.175 219.235 474.581 219.71zM480.187 222.687L480.481 223.341 481.777 223.101 483.308 221.672 486.315 221.258 485.727 220.25 483.254 220.13zM527.345 209.224L530.232 211.781 530.629 213.281 531.415 213.191 531.505 211.649 530.629 210.856 527.874 208.474zM528.75 212.225L528.402 213.767 527.309 214.476 524.026 215.052 524.158 216.288 527.615 216.114 529.806 214.746 529.674 212.363 529.32 212.093zM533.96 216.853L535.274 218.131 535.67 217.777 535.538 216.408 534.05 214.602 533.215 214.782zM536.937 219.235L537.771 220.028 538.557 219.542 537.855 218.083 536.847 217.867zM537.195 222.014L537.939 223.383 538.815 223.647 538.773 222.723 537.897 221.264zM540.22 221.972L541.402 223.383 542.057 222.326 541.18 220.826 539.608 220.472zM543.023 224.577L543.857 225.724 544.559 224.271 542.675 222.723zM543.329 227.398L544.337 228.725 545.04 228.767 544.601 227.044 543.635 226.87zM540.352 229.997L541.27 231.276 542.057 230.831 541.402 229.511zM551.372 238.412L551.684 239.535 552.056 239.787 552.734 238.91 552.116 237.416zM552.548 241.281L553.352 241.533 553.911 241.221 553.352 240.345 552.488 240.471zM553.292 248.274L553.851 248.898 554.781 248.586 553.665 247.709zM568.028 247.457L567.968 248.58 568.832 249.456 568.772 246.461zM472.672 178.565L472.384 179.778 469.515 183.421 469.689 184.171 470.896 183.997 474.623 179.832 473.188 177.581zM477.774 179.201L478.866 180.3 479.268 182.436 480.361 182.671 480.877 181.338 480.019 180.702 479.791 176.945 477.834 176.194zM480.877 180.012L481.507 181.05 482.6 179.778 482.312 177.467 480.937 177.353zM482.714 176.482L483.23 177.869 484.208 177.869 484.034 175.498 482.942 174.748 481.621 175.036zM483.974 182.208L481.963 183.829 480.301 184.003 478.524 185.912 478.584 186.782 480.247 186.26 481.393 185.51 482.372 187.994 484.094 189.207 484.784 188.973 485.415 188.223 484.04 186.836 484.844 186.2 485.763 186.95 486.393 185.912 485.763 184.639 485.649 181.806 483.746 180.474zM472.846 163.938L472.672 167.407 475.085 172.089 475.889 172.725 476.922 172.029 478.698 172.317 479.04 173.877 480.361 173.992 480.991 173.127 480.187 172.029 479.208 171.104 477.144 170.876 476.051 169.082 477.312 167.173 477.426 165.499 476.568 163.362 474.395 162.84zM475.655 174.808L476.459 175.33 477.036 174.58 476.117 173.307 475.199 173.187zM454.024 161.561L452.991 162.834 453.85 164.508 455.11 164.622 456.544 163.35 456.887 161.675 455.458 161.159zM469.917 149.659L469.803 152.78 471.64 154.917 472.096 154.515 472.042 148.038zM480.529 129.882L480.931 131.268 481.789 131.329 482.366 134.336 483.056 135.086 484.262 133.987 484.778 132.019 483.284 129.882 481.507 128.898zM485.127 128.496L485.066 130.29 485.469 130.812 487.707 128.904 487.533 126.995 486.789 126.935z"/>
        <path fill="#212121" fill-rule="nonzero" d="M481.561 126.587L482.077 127.397 483.512 127.571 486.207 125.488 488.104 125.14 489.826 127.163 491.147 126.701 491.663 124.732 494.13 124.672 496.543 121.779 495.282 116.977 494.706 114.433 495.966 113.394 493.097 109.061 492.353 109.121 490.805 110.855 490.805 112.302 491.495 113.112 491.723 116.929 489.946 119.126 488.914 118.49 488.11 120.285 487.936 121.959 488.566 122.944 488.164 123.694 486.843 122.595 485.925 122.595 485.121 123.058 484.49 123.232zM488.512 97.909L488.974 99.643 489.778 100.454 489.718 103.113 488.686 103.515 487.881 105.309 490.234 108.545 491.783 108.022 492.071 107.212 490.408 105.712 491.441 104.379 492.533 104.553 493.391 105.477 493.451 103.569 495.804 101.66 497.125 101.312 496.032 99.463 495.516 98.653 494.658 99.229 493.914 100.154 492.305 99.805 490.642 98.707 489.43 97.098zM496.483 97.561L496.597 98.659 497.401 98.311 499.291 95.94 498.091 95.304zM499.64 93.569L499.7 94.608 500.678 93.971 501.596 92.123 501.596 91.432 500.216 92.009zM502.857 79.17L502.917 80.617 503.607 80.557 504.753 78.534 503.601 78.246zM502.227 84.32L503.031 84.608 503.607 83.684 503.607 81.721 502.227 81.775zM478.698 76.283L483.344 83.456 485.006 89.698 487.936 95.25 489.082 95.652 490.06 94.842 490.516 93.509 486.327 88.942 486.441 86.571 487.359 86.169 487.587 84.782 479.382 73.162 478.752 72.58zM509.975 61.188L510.665 62.172 512.1 63.157 512.502 62.694 511.122 61.074zM513.529 62.754L515.305 63.277 515.479 62.58 513.354 61.77zM523.858 66.89L525.107 66.806 525.359 65.882 523.108 65.545zM536.697 69.495L537.447 68.654 537.447 67.394 535.694 67.646zM542.861 63.613L543.191 64.453 544.944 63.361 545.112 62.268 544.277 61.764zM550.111 57.485L551.444 57.989 551.36 55.972zM552.278 54.796L552.362 56.14 553.527 55.636 553.112 53.451zM526.943 22.966L526.607 24.143 527.273 24.899 528.774 24.395 530.274 24.899 531.109 25.151 531.025 22.378 528.36 22.042zM29.104 66.986L30.401 66.686 30.401 65.882 29.206 65.179zM24.621 67.292L25.023 68.696 26.019 67.892 28.012 66.986 27.214 65.984zM14.645 67.286L14.345 68.09 14.543 69.597 16.44 67.688zM10.948 66.89L10.348 67.994 11.446 69.099 12.646 67.592zM5.966 64.879L5.168 65.179 5.168 66.686 6.068 67.286 6.764 65.984zM1.278 59.549L.978 60.354.282 60.354.282 58.847zM373.097 301.452L376.662 302.281 377.485 300.162 376.206 300.528 374.562 300.894 374.105 298.961 373.187 298.877zM366.423 239.673L366.603 240.963 368.524 239.396 367.335 238.478zM362.587 240.597L362.497 241.791 363.41 241.977 364.778 241.335 363.956 240.507zM353.626 225.868L351.436 229.733 347.6 230.009 345.956 231.942 346.232 237.836 343.855 240.597 344.131 245.291 346.142 247.589 348.519 247.313 350.895 245.561 350.349 242.8 355.829 233.316 354.731 232.122 355.829 229.823 357.017 230.189 357.384 229.271 356.285 224.577 355.643 222.645 354.905 222.831zM346.412 222.735L347.6 222.921 348.056 221.726 346.136 221.816zM348.326 224.673L349.059 224.673 349.425 223.383 347.87 223.659zM360.571 214.818L361.573 215.646 362.305 214.818 360.937 214.08zM364.958 209.296L365.781 210.586 366.879 210.586 366.057 208.558zM365.781 212.609L366.327 213.437 367.329 213.623 367.419 211.871 366.513 211.781zM393.558 193.09L394.561 193.456 394.741 192.076 393.378 191.524zM394.567 196.77L395.299 197.136 395.941 195.845 394.657 194.837zM394.201 199.254L394.933 199.897 395.845 199.254 394.843 198.612zM222.246 130.08L223.711 130.902 223.873 129.756 223.062 129.258zM226.484 129.42L227.3 130.074 228.602 129.744 227.462 128.766zM227.624 132.379L228.272 133.201 229.089 132.547 228.11 131.064zM231.693 134.51L232.18 135.002 233.482 134.18 232.018 133.687zM243.746 141.724L244.394 142.546 245.372 142.054 244.394 140.902zM247.809 151.898L248.295 152.39 248.859 151.292zM243.908 151.736L244.556 152.72 245.534 152.72 245.21 151.406zM241.297 151.244L242.437 152.228 243.085 150.751 242.113 150.421zM230.877 174.04L231.693 174.694 232.672 174.202 232.018 173.385zM234.076 175.366L234.604 176.344 235.877 175.774 234.821 174.706zM232.24 177.131L233.266 178.505 234.076 178.079 233.194 176.56zM5.318 149.671L6.542 150.493 7.275 149.839 5.402 148.272zM7.437 151.153L8.415 152.384 9.555 151.4 8.577 150.331zM9.885 153.614L10.21 154.437 11.596 153.782 10.864 152.3zM11.92 158.128L12.49 159.358 14.363 158.782 15.341 157.138 13.301 155.247 12.49 154.845zM14.615 240.609L14.531 241.677 15.425 242.254 16.488 241.599 15.756 240.693zM18.036 242.914L19.261 244.39 20.323 244.144 20.893 243.406 19.669 241.845zM164.518 169.454L164.836 170.252 165.892 169.562 165.682 169.346 165.418 169.082zM166.372 171.11L167.009 171.963 167.801 171.273 166.901 169.988zM168.065 173.667L168.539 174.628 169.44 174.364 168.701 173.079zM168.221 176.386L168.911 177.131 169.812 176.65 168.647 175.48zM167.963 178.307L168.545 179.375 169.5 178.841 168.701 177.773zM167.111 180.54L167.375 180.966 168.221 180.966 168.485 180.27 167.801 179.85zM168.167 182.521L167.477 182.629 167.477 183.481 168.749 184.651 169.278 183.799 169.596 182.839 169.488 182.04 168.803 181.932zM160.502 167.161L159.23 167.959 159.866 168.704 162.033 169.022 162.087 167.695zM148.972 165.312L150.119 165.781 150.287 167.215 147.748 167.437 148.006 168.818 148.744 168.872 149.17 168.235 152.135 168.332 152.67 169.358 153.354 168.554 155.353 168.013 157.111 168.386 157.315 167.323 154.146 165.252 152.093 164.484 149.975 164.286z"/>
        <path fill="#212121" fill-rule="nonzero" d="M154.146 165.246L152.646 164.736 152.141 168.338 152.67 169.352 153.36 168.554 155.371 168.019 157.117 168.392 157.321 167.323zM152.033 164.502L151.787 167.035 151.583 168.368 149.176 168.235 148.75 168.878 148.012 168.824 147.748 167.437 150.287 167.227 150.131 165.787 148.966 165.306 149.969 164.286zM182.656 303.841L181.084 304.898 182.224 306.134 184.235 304.015zM185.285 304.898L183.797 306.218 183.887 306.656 186.426 305.684 187.476 304.363 185.807 303.223zM242.125 68.745L240.541 69.747 239.178 71.007 239.214 71.71 240.979 71.932 240.871 73.192 240.246 73.822 240.396 74.23 242.161 74.344 242.161 76.385 244.7 76.829 246.207 77.682 247.899 77.754 250.804 76.307 253.049 73.342 253.085 71.337 251.722 70.185 250.582 69.219 250.066 69.591 249.292 70.593 248.409 70.479 247.527 69.513 246.387 69.621 244.73 70.995 243.734 72.07 243.181 71.59 243.145 70.401 243.698 70.029 243.302 69.411zM291.468 30.391L289.272 31.459 285.238 31.459 284.602 33.812 286.865 35.811 287.855 35.667 289.272 33.242 290.472 34.1 289.62 35.811 289.194 38.308 290.184 39.874 292.309 36.309 295.07 32.954 294.007 32.03 292.459 31.387zM291.889 28.746L292.951 30.385 294.86 30.385 295.64 31.453 297.975 32.666 300.664 31.099 302.506 29.533 301.87 28.248 300.027 27.18 298.683 28.392 297.765 27.252 297.056 27.324 296.138 29.323 294.794 27.966 294.65 27.042 293.659 27.108zM296.276 35.739L295.076 36.663 295.64 37.66 296.774 38.014 298.617 37.155 299.469 36.087 298.689 34.803 297.693 34.454zM329.24 22.696L328.513 23.945 328.513 25.715 326.965 26.652 325.314 26.652 324.384 25.505 324.486 24.257 325.212 23.321 326.659 23.321 328.207 22.282zM332.133 22.384L333.165 23.219 334.612 23.116 335.854 21.97 335.854 21.136 334.72 21.136 333.789 21.448 333.063 20.614 332.133 21.136zM338.753 22.804L340.2 22.906 341.232 22.492 340.716 21.034 339.371 20.722 338.027 21.244zM342.78 18.951L341.748 19.995 342.264 20.932 342.576 22.39 343.921 21.352 344.233 20.205 343.915 19.161zM349.905 31.657L347.528 33.74 342.462 34.887 338.327 41.759 337.601 43.74 341.736 44.784 342.354 42.287 343.597 38.434 346.802 36.765 349.491 34.683 351.454 33.848 352.486 33.848 352.486 31.039 350.217 30.199zM339.677 45.714L340.608 48.944 342.985 51.44 342.156 53.109 340.71 53.109 339.365 51.548 336.37 51.446 335.128 49.778 335.128 48.631 336.988 48.109 336.886 45.402zM379.159 9.06L377.611 9.06 377.299 9.996 375.648 10.932 374.406 11.346 374.202 12.595 377.095 12.805 380.504 9.894zM382.977 11.766L381.53 11.664 379.255 13.333 378.637 15.416 380.084 15.416 380.912 14.059 382.875 15.518 384.735 14.684 386.08 13.537 385.564 11.766 384.837 10.518 383.703 10.206zM387.43 14.269L388.565 16.976 389.807 14.792 392.184 14.269 392.184 12.709 390.635 11.562 386.704 11.352zM445.026 8.039L446.173 7.565 446.509 5.662 444.156 4.036 442.608 5.056 438.838 5.398 438.838 7.097 434.865 7.163 434.865 9.942 439.51 13.399 440.723 12.517 440.453 10.074 443.418 9.33 442.812 8.177 441.737 7.091 443.412 6.683zM448.796 7.091L452.973 6.617 454.12 5.122 453.85 3.832 452.703 3.358 451.629 4.174 448.532 4.852 447.721 5.056zM445.363 12.451L444.156 13.741 443.616 15.506 446.443 15.236 448.598 14.149 447.451 12.991zM499.832.717L497.815 1.461 496.807 2.955 498.085 4.654 501.452 3.159 502.124 2.415 501.584 1.257z"/>
        <path fill="#EB7227" fill-rule="nonzero" d="M408.017 185.528L408.167 186.716 407.285 186.866 407.729 189.537 409.056 190.281 411.115 189.093 410.526 186.278 410.676 185.239 408.762 183.463 407.867 183.895z"/>
        <path fill="#212121" fill-rule="nonzero" d="M131.956 159.971L135.15 160.031 136.656 159.154 136.89 159.797 140.023 160.559 142.808 163.074 142.172 163.95 142.286 164.946 144.609 165.529 146.932 164.478 147.976 163.428 146.469 162.666 138.697 158.104 135.972 157.81 131.956 159.208zM142.46 154.299L142.4 155.757 143.33 156.693 143.967 155.757 143.216 154.533zM143.679 157.396L144.663 158.8 145.185 158.098 144.723 156.813zM146.986 157.804L147.1 158.506 147.91 159.676 148.606 158.914 148.09 157.864zM145.767 155.703L145.419 153.89 146.115 153.596 146.812 155.001 147.508 155.529 147.568 156.465zM144.897 152.546L144.723 151.376 143.739 151.027 144.375 150.385 145.533 150.793 146.403 151.322 145.827 152.78zM140.719 167.341L140.719 167.923 141.938 168.626 143.216 168.626 144.027 167.689 142.808 166.813zM496.23 202.958L494.622 204.134 495.288 205.479 498.013 205.983 498.013 206.487 496.29 207.885 497.125 210.796 497.959 210.85 498.679 207.993 500.012 207.993 500.57 210.79 507.07 216.168 507.238 220.37 509.459 222.777 510.461 222.723 510.684 207.885 506.908 205.256 503.349 207.663 502.07 208.45 499.958 207.105 499.904 202.85 498.733 202.676z"/>
        <path fill="#EB7227" fill-rule="nonzero" d="M50.25 27.138L51.288 32.81 56.768 34.304 57.062 35.499 48.917 38.038 44.326 45.648 45.952 53.709 48.617 55.498 50.694 53.559 51.288 54.754 48.767 57.737 38.99 62.214 32.766 63.709 32.615 65.948 46.985 61.77 52.909 60.125 58.389 53.409 64.463 49.382 61.354 54.604 64.763 55.054 70.543 52.515 71.581 56.692 75.579 57.587 79.726 61.614 80.02 64.597 79.426 65.341 80.164 68.174 81.203 68.174 81.353 63.397 82.535 63.397 82.829 75.185 85.794 72.646 83.717 60.408 80.608 60.408 77.199 56.08 93.939 27.72 77.349 14.738 58.833 18.321 58.094 23.993 62.092 26.382 60.609 30.265 55.285 25.943z"/>
        <path fill="#212121" fill-rule="nonzero" d="M116.051 203.63L115.361 204.326 115.835 205.178 117.053 204.698 117.635 203.684 117.263 202.616 116.423 201.979z"/>
        <path fill="#EB7227" fill-rule="nonzero" d="M121.813 22.954L117.023 27.918 118.224 31.94 121.681 31.003 123.679 28.05 128.733 26.172 132.857 25.901 129.664 22.414 128.067 23.621 126.867 23.219 126.2 21.742 124.736 20.265 121.681 20.542zM126.873 15.314L132.064 17.192 133.925 14.377 134.723 16.256 136.056 16.256 138.583 13.441 135.522 12.637 134.321 11.7 132.725 13.309 127.935 13.435zM132.863 18.933L132.863 20.271 138.187 22.282 136.986 23.621 137.784 25.361 141.11 23.885 143.907 23.885 145.239 26.027 147.502 23.747 146.968 21.598 145.107 22.27 144.843 19.587 145.773 17.979 144.843 17.979 143.378 18.915 142.712 19.449 143.114 21.328 142.052 22.132 140.455 22 140.053 19.587 136.986 17.192zM142.04 14.371L144.567 15.578 146.427 14.503 146.295 13.699 142.442 13.033zM142.574 11.424L142.706 12.361 146.83 12.091 146.698 11.154 144.435 10.752zM153.09 13.969L152.424 14.906 152.424 16.244 154.95 15.842 157.609 18.123 158.54 18.123 158.54 15.842 155.881 12.889 153.354 13.033zM161.205 16.922L160.274 18.531 160.941 20.271 163.87 18.663 163.87 17.456 162.141 15.446 160.142 15.716zM164.134 14.774L167.729 14.774 168.659 15.578 168.527 16.514 165.334 16.916 167.597 20.001 170.658 20.536 174.913 18.657 168.791 9.402 166.931 10.608 167.063 12.217 164.932 11.412 164.002 12.631zM127.941 29.125L125.012 31.675 125.276 34.49 130.6 36.099 129.399 38.782 125.54 36.369 124.478 38.38 127.005 40.12 126.873 42.935 130.732 44.01 135.39 43.74 136.188 42.263 139.645 46.153 142.04 45.348 142.442 42.665 144.171 43.872 144.435 41.189 142.304 39.85 142.436 31.405 140.575 29.929 138.583 32.612 132.995 27.786zM147.502 32.882L146.572 34.088 148.432 37.041 148.564 39.856 152.556 37.444 152.556 33.956 154.02 32.48 152.556 31.405 150.161 31.405 149.23 33.686zM154.95 34.761L155.617 37.576 157.345 37.576 158.144 36.099 159.344 37.305 160.544 37.173 163.738 34.49 157.747 32.48zM156.811 29.389L159.74 30.463 160.538 29.257 157.477 28.05zM152.82 23.357L151.091 24.965 154.284 25.097 153.354 27.51 154.02 28.584 154.95 28.452 157.213 24.833 155.749 22.954zM159.212 22.552L159.476 24.695 162.135 26.436 162.267 27.774 161.469 28.578 161.871 31.261 172.116 34.611 174.913 35.547 177.71 33.134 174.385 30.451 171.324 31.255 167.069 30.853 165.472 29.245 165.07 24.821 162.411 23.483 160.809 22.018zM166.258 35.697L162.801 37.035 160.941 39.58 161.475 46.555 167.195 46.825 172.651 49.508 176.51 53.931 179.439 53.799 178.641 57.953 175.982 62.376 173.053 63.715 170.922 63.313 169.86 62.376 168.263 64.519 168.929 66.662 171.192 66.794 173.989 65.455 176.384 71.626 182.374 75.515 186.498 70.287 183.04 64.657 185.039 62.376 187.836 67.07 192.89 62.646 191.959 60.636 188.502 61.71 186.107 55.138 188.37 51.386 183.845 46.561 181.318 48.301 178.923 43.073 173.869 43.746 172.537 37.444 168.413 40.259 168.011 43.746 165.748 43.746 166.012 40.661 169.187 35.967z"/>
        <path fill="#EB7227" fill-rule="nonzero" d="M174.115 39.454L175.046 40.931 179.439 41.465 176.642 38.512 175.178 38.38zM170.922 24.431L167.993 25.103 168.791 26.442 172.116 27.78 175.844 28.182 178.503 30.061 181.162 28.584 179.301 26.706 181.696 26.706 183.16 25.097 186.756 24.563 186.756 23.759 184.757 22.42 185.021 20.944 190.609 21.88 198.862 18.663 195.801 17.727 196.599 16.652 202.985 16.652 204.048 15.578 191.137 11.016 188.076 9.942 184.751 12.355 181.024 9.27 179.025 9.138 178.623 11.688 176.096 9.408 173.167 10.344 173.701 11.821 178.095 12.757 177.831 14.9 180.225 16.376 186.083 14.9 186.215 16.91 181.426 19.191 178.497 16.91 175.838 17.18 178.497 20.938 177.164 21.61 175.166 19.869 173.701 20.806 175.034 23.351 177.296 23.351 176.762 25.763 174.901 25.493 172.507 22.942 170.922 23.225zM156.523 63.325L156.367 66.842 158.588 65.563 161.283 65.563 163.185 67.322 164.932 65.882 159.062 60.131zM183.635 107.74L184.271 109.181 192.037 112.056 193.148 110.141 192.512 106.948 189.973 107.266 188.544 105.669 190.921 103.275 189.979 101.666z"/>
        <path fill="#EB7227" fill-rule="nonzero" d="M95.56 30.013L96.16 32.426 99.149 33.176 101.244 30.919 103.038 31.826 108.122 32.276 111.711 30.769 112.311 35.739 114.406 35.739 114.406 33.632 116.501 33.782 121.735 39.958 125.174 42.065 123.379 44.928 124.13 45.678 130.846 47.035 130.996 50.048 132.791 50.348 133.241 45.828 136.08 45.078 138.175 48.241 142.658 50.348 144.903 50.798 146.397 48.992 146.548 46.129 149.236 44.472 150.131 46.885 147.736 51.104 148.036 53.211 149.381 51.104 152.069 48.691 152.22 45.528 150.725 43.116 151.175 41.159 154.764 39.352 156.409 40.559 156.709 51.104 159.248 48.848 160.743 49.754 158.648 53.367 161.337 53.967 165.226 47.941 168.515 51.404 167.171 57.581 163.882 59.387 160.743 57.881 155.065 59.087 155.665 61.044 154.17 63.457 149.537 64.513 144.303 68.582 139.669 74.759 139.069 76.715 142.208 77.922 143.402 80.935 147.736 85.304 154.614 88.317 153.12 95.244 152.97 97.201 154.764 98.407 157.159 95.244 157.459 89.218 161.199 89.068 162.993 85.604 163.293 80.335 168.077 70.995 174.055 73.102 177.194 77.472 175.85 81.841 178.245 83.198 184.073 79.278 185.717 89.974 191.101 96.45 191.251 99.763 185.273 101.27 182.434 104.283 176.456 102.927 173.467 102.776 168.233 106.846 171.372 106.096 175.262 105.345 176.012 106.252 174.968 109.565 175.118 112.578 176.912 113.784 178.707 113.334 179.607 111.978 180.802 111.978 178.857 115.591 175.118 115.741 173.473 118.154 171.378 118.154 170.778 116.347 173.767 113.334 170.178 114.541 170.016 109.421 168.983 108.821 165.844 110.177 165.544 112.74 158.366 112.74 152.238 116.959 144.015 119.672 143.12 118.466 147.262 112.284 144.909 110.021 143.414 107.152 140.371 104.829 137.106 104.559 131.254 100.46 88.813 93.485 88.111 90.61 84.222 86.997 84.222 83.984 84.822 81.271 84.522 79.764 83.027 78.258 82.727 75.845 86.616 73.132 84.222 60.18 80.932 60.029 77.943 56.11 94.365 28.206z"/>
        <path fill="#EB7227" fill-rule="nonzero" d="M88.087 96.45L85.992 95.094 84.948 95.094 84.348 97.657 77.019 114.078 78.964 128.387 81.359 129.594 81.809 133.513 86.742 133.513 91.526 137.127 100.943 138.033 101.988 142.853 103.482 143.909 105.577 141.802 107.222 142.552 108.716 149.479 111.255 151.135 113.35 147.216 119.778 142.546 123.962 144.503 127.551 144.803 127.701 142.546 135.174 142.697 136.668 144.353 136.968 148.116 136.074 150.223 137.118 153.836 139.363 153.836 141.608 150.373 140.713 148.717 139.819 145.103 141.164 141.034 147.292 135.764 151.925 134.408 151.325 130.038 157.753 123.106 164.182 122.049 163.137 118.442 169.416 114.829 169.416 110.009 168.815 109.709 166.571 110.459 166.27 113.412 158.81 113.502 152.964 117.386 143.787 120.387 142.322 118.592 146.487 112.29 144.429 110.327 143.03 107.662 140.131 105.333 136.98 105.069 131.026 101.006 88.687 94.037zM78.706 78.03L79.06 79.416 79.726 79.83 79.57 80.395 78.856 80.599 79.06 82.657 79.828 83.432 80.44 82.765 79.672 80.761 80.128 79.164 81.251 77.67 80.434 76.283 79.726 76.073zM82.181 88.161L83.867 90.118 84.276 92.435 85.962 94.235 87.391 93.977 87.391 91.613 85.656 90.532 83.099 87.801z"/>
        <path fill="#212121" fill-rule="nonzero" d="M119.928 176.578L123.517 172.119 122.905 171.195 121.681 171.153 121.681 168.542 120.762 167.983 117.983 168.812 119.046 171.261 116.369 173.974zM129.52 172.119L131.164 174.076 130.138 173.841 128.163 173.925 125.582 176.35 124.478 178.805 123.751 178.421 123.745 175.732 122.149 174.664 123.974 172.329z"/>
        <path fill="#212121" fill-rule="nonzero" d="M123.253 178.229L123.211 176.002 121.765 175.12 120.432 176.825zM131.404 174.592L131.446 177.287 129.916 181.656 125.792 181.248 124.874 179.141 126.098 176.584 128.421 174.424 130.09 174.328zM130.708 183.685L131.386 184.585 130.474 187.292 128.733 186.068 125.888 183.463 125.888 181.74 129.874 182.052zM130.924 187.568L133.817 188.319 135.612 188.673 135.918 186.554 137.844 185.582 139.555 186.464 140.227 187.538 141.044 187.442 141.686 185.492 139.549 184.609 137.928 183.727 136.308 184.831 134.381 185.804 132.413 185.011 131.8 184.831z"/>
        <path fill="#212121" fill-rule="nonzero" d="M150.455 178.805L142.28 185.546 141.416 187.916 140.299 188.042 140.797 193.282 137.946 200.275 141.044 202.898 145.011 203.15 147.736 207.147 151.697 207.273 151.571 210.268 153.054 210.268 154.662 204.776 153.174 202.904 153.546 199.41 156.643 199.158 156.271 191.044 149.332 188.799 147.724 184.429 151.691 178.931z"/>
        <path fill="#212121" fill-rule="nonzero" d="M149.993 184.171L151.943 184.789 152.388 181.926 154.446 179.796 156.505 182.208 161.241 183.499 165.25 182.659 167.981 186.026 170.04 187.316 167.783 190.755 168.539 193.36 167.249 194.957 165.91 196.079 163.011 194.621 162.345 195.293 162.345 197.37 164.464 198.378 162.903 200.065 161.343 201.751 159.284 201.583 157.213 199.308 156.775 190.749 149.705 188.337 148.42 184.573 149.729 182.617z"/>
        <path fill="#212121" fill-rule="nonzero" d="M174.823 191.47L173.101 193.462 172.963 194.645 175.226 196.98 175.172 199.224 171.234 200.725 168.875 197.538 169.38 193.708 168.371 190.857 170.49 187.544z"/>
        <path fill="#212121" fill-rule="nonzero" d="M176.564 192.874L178.461 191.698 180.189 191.752 179.967 192.424 179.241 193.937 179.127 197.7 175.676 199.104 175.844 196.691 173.617 194.615 173.731 193.546 175.34 191.752zM184.253 194.339L182.416 197.988 181.75 198.828 179.799 197.706 179.853 193.774 180.742 192.148zM134.729 202.345L134.525 204.962 133.955 205.821 135.744 207.537 134.969 208.384 135.15 210.544 138.349 211.307 143.192 205.575 143.18 203.576 140.858 203.426 137.568 200.581z"/>
        <path fill="#212121" fill-rule="nonzero" d="M133.301 209.962L133.379 211.841 143.546 230.375 154.104 237.182 155.737 234.445 156.127 228.425 155.275 224.673 152.4 219.824 150.689 220.37 149.915 221.228 146.499 217.315 147.352 212.699 151.313 210.118 151.001 207.693 146.968 207.537 144.873 204.02 143.709 203.63 143.787 205.743 138.589 211.919 134.705 210.983 134.465 208.786z"/>
        <path fill="#212121" fill-rule="nonzero" d="M159.62 220.598L161.253 220.754 162.339 225.292 169.866 227.794 171.108 231.63 174.211 232.02 175.532 235.303 174.601 238.274 169.554 238.664 167.693 243.436 163.732 243.358 162.489 243.124 160.202 245.345 159.074 245.237 155.191 236.239 156.265 234.631 156.643 228.269 155.683 224.481 154.68 222.753z"/>
        <path fill="#212121" fill-rule="nonzero" d="M175.838 240.231L175.682 243.28 179.487 243.046 182.362 246.725 182.128 250.008 180.267 252.823 176.462 252.979 176.306 251.413 177.392 248.832 173.665 246.485 170.562 246.485 168.233 243.982 169.926 239.144 174.517 238.79zM178.449 259.564L178.959 266.634 182.824 267.756 187.74 262.829 179.679 258.249z"/>
        <path fill="#212121" fill-rule="nonzero" d="M183.911 251.101L179.487 257.673 177.933 259.396 178.473 266.904 181.888 271.052 179.019 276.057 176.846 276.994 174.361 276.994 175.058 280.901 171.174 282.234 172.104 285.517 169.776 292.947 172.651 295.294 171.096 299.123 168.455 303.271 169.854 306.164 166.439 306.71 163.642 303.271 163.173 292.557 158.828 274.359 160.142 267.997 157.345 259.864 159.206 249.306 160.917 247.271 160.496 245.729 162.693 243.724 167.591 244.06 170.328 246.983 173.491 247.037 176.732 249.018 175.778 251.251 176.006 253.507 180.597 253.291 182.746 250.008zM167.921 313.198L172.345 313.667 172.423 309.915 170.484 307.568zM172.969 313.823L175.61 313.589 177.861 312.1 174.055 311.32 172.813 310.383z"/>
        <path fill="#212121" fill-rule="nonzero" d="M167.687 308.817L167.453 311.32 163.726 309.207 159.764 303.499 158.6 301.464 160.232 299.352 160.076 296.693 158.216 295.912 156.739 294.82 157.051 293.331 158.99 292.785 159.38 284.184 156.355 282.462 154.38 237.692 154.89 236.804 158.756 245.717 159.992 245.741 160.394 247.163 158.75 249.156 156.859 259.882 159.548 268.141 158.306 274.395 162.687 292.785 163.149 303.541 166.288 307.172 169.614 306.686z"/>
        <path fill="#212121" fill-rule="nonzero" d="M156.049 285.355L156.439 287.389 157.213 287.467 157.603 284.886 156.823 284.184zM191.761 255.188L191.899 249.126 198.898 244.612 202.817 244.612 205.896 239.396 206.455 229.385 205.194 226.708 212.613 219.938 212.895 212.465 202.817 207.531 190.645 203.726 184.907 203.162 186.45 199.921 186.029 194.987 184.775 194.573 182.92 198.258 181.948 199.476 179.451 198.372 171.054 201.331 168.257 197.808 168.707 194.129 166.066 196.818 163.149 195.245 162.855 195.659 162.861 196.938 165.376 198.288 161.601 202.267 159.218 202.243 156.805 199.789 154.074 199.873 153.738 202.79 155.305 204.692 153.456 210.616 151.295 210.784 147.856 212.957 147.016 217.225 149.999 220.418 150.545 219.8 152.64 219.235 154.428 222.248 159.548 220.052 161.535 220.166 162.903 225.009 170.208 227.326 171.468 231.192 174.577 231.564 176.06 235.255 175.058 238.538 176.366 240.255 176.174 242.812 179.679 242.482 182.89 246.539 182.638 249.39 184.541 250.999 179.979 257.907 188.01 262.403zM122.149 170.69L122.653 170.69 124.37 167.485 123.205 167.485 122.179 168.5zM491.411 46.423L493.523 47.029 495.636 43.686 494.43 41.405 494.88 39.43 498.049 39.43 497.293 40.949 497.593 46.423 493.067 57.671 493.517 60.101 493.367 64.207 501.812 76.517 503.469 76.973 503.619 66.944 505.276 65.425 503.463 61.476 504.969 59.801 501.65 55.396 499.838 55.546 499.237 48.253 503.913 47.035 504.213 44.904 506.626 44.298 507.983 45.516 509.639 38.83 512.502 33.968 514.765 32.75 516.728 32.9 516.728 30.619 513.559 30.013 509.183 26.364 511.296 23.933 509.483 19.827 510.99 18.309 512.802 20.74 517.328 22.414 522.304 22.87 522.91 20.746 520.347 18.165 523.21 14.215 516.722 11.935 515.065 15.278 512.952 12.541 501.038 8.435 489.724 10.41 488.068 11.322 488.068 12.235 490.48 13.453 490.18 16.34 485.805 14.515 476.153 18.315 474.497 14.822 467.858 14.822 464.839 18.015 454.132 15.584 444.33 17.559 443.124 20.596 444.63 21.052 444.48 23.333 434.979 24.395 435.585 27.432 426.834 25.913 428.947 21.964 420.046 21.508 420.802 25.613 417.939 26.982 415.526 24.701 405.725 26.376 401.955 29.869 401.805 31.994 399.392 32.144 399.092 29.713 406.787 23.026 406.787 18.465 401.811 17.096 395.323 19.221 392.61 16.484 391.404 16.484 389.897 19.521 391.103 20.89 382.502 25.601 375.114 31.225 370.588 37.456 370.588 40.036 375.414 42.011 373.001 43.836 367.875 42.011 365.763 43.836 362.593 40.186 361.987 41.555 365.456 52.497 366.363 52.803 368.776 51.584 369.982 52.497 369.982 54.471 367.719 53.559 366.363 54.622 367.269 56.596 366.513 61.764 361.837 62.22 361.537 60.546 364.25 58.871 364.856 54.309 361.837 50.36 360.781 43.524 355.955 42.761 355.505 45.192 356.411 46.411 354.449 48.085 355.205 52.647 358.068 53.865 358.674 57.208 355.805 55.384 348.416 54.015 347.51 56.446 341.628 58.571 340.722 57.052 333.027 61.308 332.877 64.195 329.858 64.651 330.764 62.526 330.764 60.402 327.745 59.339 325.783 60.101 327.439 63.295 328.646 65.419 328.646 67.094 326.383 66.638 325.933 66.182 323.67 68.612 324.876 70.737 319.75 70.587 321.407 72.718 320.957 73.63 318.244 73.63 316.281 72.262 315.831 68.462 312.662 67.244 312.662 65.725 319.3 67.094 322.92 67.4 324.426 65.119 323.07 62.688 313.418 58.889 310.087 59.717 308.947 60.696 309.301 62.946 310.717 63.193 310.387 66.734 314.757 76.997 311.6 82.003 311.383 83.132 312.986 84.26 311.54 85.214 310.579 85.232 310.759 89.644 312.086 91.523 312.104 93.347 313.802 93.503 316.401 94.494 319.15 98.275 319.18 99.271 318.286 100.802 320.339 100.688 322.337 101.264 325.038 105.087 331.689 105.694 331.4 110.243 329.108 112.206 329.582 112.974 327.319 115.405 326.719 117.686 328.075 119.66 332.451 121.179 334.263 120.117 345.878 124.522 346.328 123.304 343.915 121.023 343.915 118.136 342.408 117.68 342.708 115.249 345.121 112.362 340.794 109.121 341.094 104.613 345.722 101.57 351.153 101.876 352.06 103.551 357.642 103.857 361.717 101.576 359.604 99.295 360.055 95.04 370.612 89.872 378.733 93.533 381.446 91.102 389.441 98.701 395.473 98.095 397.586 100.22 403.318 100.826 407.087 95.658 411.913 97.789 414.476 98.245 417.039 95.964 414.776 94.446 416.738 91.408 422.32 93.233 423.527 95.664 425.94 95.814 427.446 94.752 431.522 94.602 431.972 95.664 436.647 95.97 439.817 92.627 446.305 93.389 448.268 92.627 448.868 88.978 446.905 84.572 448.868 82.897 455.05 82.897 460.932 89.89 468.471 94.145 470.733 94.145 471.034 92.321 473.747 90.646 474.047 100.526 471.634 100.676 471.634 103.107 472.99 104.781 472.738 106.954 473.741 107.368 474.347 105.85 475.253 106.156 475.853 106.762 478.566 106.156 481.279 98.251 481.579 88.371 478.11 80.467 473.735 75.149 471.622 75.455 471.622 77.129 466.496 75.155 468.459 70.899 470.115 59.651 477.054 57.527 480.373 55.402 483.992 55.402 483.086 56.62 483.992 58.139 487.161 54.796 488.974 54.946 488.674 52.971 485.805 52.365 487.767 45.222 490.354 42.773z"/>
        <path fill="#212121" fill-rule="nonzero" d="M401.781 101.078L399.704 106.3 396.841 106.15 393.822 112.758 396.385 116.023 391.103 123.316 388.391 122.86 386.578 125.14 387.028 126.509 389.141 126.659 390.197 129.09 392.31 129.546 398.798 137.907 398.798 142.162 401.967 144.137 405.437 143.531 409.812 146.112 415.094 147.63 417.657 147.324 420.526 147.018 426.558 143.069 428.521 143.375 429.271 145.157 430.933 145.656 433.196 148.999 431.69 152.342 432.596 154.623 435.159 155.535 435.609 158.272 438.628 158.578 439.078 157.21 443.454 154.929 446.167 155.079 449.336 158.572 451.449 157.66 452.805 157.81 453.411 159.484 454.468 159.634 455.974 157.51 462.006 155.229 467.438 148.693 469.251 142.462 469.101 138.357 466.838 137.901 468.195 136.382 467.894 133.951 462.162 128.177 462.162 125.29 463.819 123.166 465.476 122.403 465.626 120.729 461.4 120.729 460.644 123.01 458.681 122.553 456.268 119.973 457.775 116.023 459.888 113.742 461.85 113.892 461.55 117.386 462.607 118.298 465.17 115.717 466.076 115.567 465.776 113.592 468.189 110.705 470.001 110.855 471.058 107.512 472.294 106.858 472.42 104.775 471.22 103.515 471.118 100.226 473.428 100.076 473.278 91.595 471.658 92.567 471.052 94.74 468.345 94.734 460.5 90.322 454.834 83.492 449.084 83.432 447.619 84.704 449.48 88.966 448.832 92.963 446.515 93.923 445.212 93.821 445.116 97.777 446.473 98.083 448.886 97.02 452.055 98.539 452.055 100.058 449.792 100.208 447.979 104.157 446.323 104.307 440.441 112.056 434.259 114.793 430.033 115.099 427.17 113.124 423.095 115.255 418.719 113.886 417.663 110.999 410.274 110.543 406.355 104.163 404.698 104.163 403.366 101.204z"/>
        <path fill="#212121" fill-rule="nonzero" d="M407.315 96.504L411.511 98.443 414.362 99.205 417.855 96 415.484 94.253 417.045 92.051 421.702 93.695 423.317 96.342 426.234 96.42 427.758 95.286 430.897 95.16 431.582 96.324 436.798 96.588 440.099 93.221 444.666 93.701 444.402 98.287 446.401 98.743 448.856 97.627 451.455 98.911 451.395 99.559 449.51 99.613 447.547 103.731 446.023 103.881 440.093 111.63 434.037 114.301 430.249 114.595 427.104 112.566 423.083 114.715 419.121 113.484 417.999 110.609 410.496 110.081 406.655 103.569 404.788 103.449 403.822 101.138zM467.636 116.065L467.972 119.931 470.163 120.057 472.228 117.638 471.514 117.001 471.598 114.409 473.494 112.116 472.528 110.375 473.158 109.655 473.506 107.854 472.408 107.356 471.472 107.83 470.313 111.347 468.441 111.185 466.274 113.742 466.532 115.603zM476.279 120.987L476.91 123.916 476.784 125.488 474.971 127.529 473.41 127.613 471.64 123.79 470.968 121.965 471.682 121.413 471.514 120.651 470.631 120.255 472.57 117.962zM347.996 111.161L350.745 111.065 350.937 115.267 349.329 115.267 348.098 117.272 349.707 119.943 352.078 121.281 352.294 122.812 353.164 122.523 353.968 121.569 355.295 121.857 355.961 123.196 357.666 123.196 357.666 121.479 356.621 118.424 356.147 115.945 359.178 114.607 363.254 115.273 365.811 117.848 371.591 117.278 374.814 121.857 378.601 122.049 379.645 120.333 380.972 120.045 381.164 118.136 383.151 118.04 384.195 119.282 385.239 116.803 394.237 118.046 395.749 116.041 393.192 112.89 396.601 105.447 399.35 105.639 401.247 101.06 397.46 100.676 395.281 98.575 389.279 99.271 381.548 91.799 378.823 94.217 370.558 90.466 360.421 95.43 360.139 98.959 362.509 101.726 357.888 104.337 351.892 104.205 350.637 102.362 345.938 102.104 341.484 104.967 341.388 108.881 345.535 112.212z"/>
        <path fill="#212121" fill-rule="nonzero" d="M355.463 125.176L352.972 125.176 352.972 127.313 355.649 129.078 354.821 131.497 354.821 132.613 355.931 132.799 357.408 130.848 360.733 130.104 367.839 132.799 367.929 134.75 371.897 135.122 376.326 130.47 375.774 128.982 372.821 128.333 364.514 122.938 364.142 120.987 361.003 120.987 359.616 123.592 358.23 123.592 355.835 123.598z"/>
        <path fill="#212121" fill-rule="nonzero" d="M378.733 130.578L378.733 127.415 376.981 126.395 379.934 122.673 381.134 122.673 382.334 124.072 385.473 122.866 381.134 121.377 380.966 120.477 379.934 120.729 378.919 122.493 374.544 122.349 371.333 117.806 365.691 118.364 363.002 115.699 359.28 115.069 356.579 116.167 358.146 121.377 358.164 123.13 359.304 123.154 360.703 120.489 364.424 120.537 364.976 122.583 372.953 127.877 376.038 128.586 376.884 130.482z"/>
        <path fill="#212121" fill-rule="nonzero" d="M380.114 123.088L381.044 123.088 381.368 123.772 380.228 124.6 380.228 125.284 380.978 125.825 384.585 126.041 385.762 125.536 386.296 125.645 386.656 126.797 388.799 127.013 389.873 129.282 389.549 129.966 389.123 130.002 388.697 129.138 387.766 129.066 386.158 129.282 386.05 130.794 384.441 130.686 384.513 128.778 383.337 127.625 381.548 129.102 381.584 130.074 380.012 130.614 379.081 130.614 379.153 127.265 377.647 126.149z"/>
        <path fill="#212121" fill-rule="nonzero" d="M381.434 120.087L381.584 121.023 386.806 122.776 382.22 124.624 381.698 124.192 380.708 124.828 380.756 125.176 381.284 125.416 384.501 125.5 386.134 125.008 388.228 122.367 390.851 122.824 394.014 118.442 385.552 117.29 384.381 120.129 382.905 118.544 381.62 118.568zM368.956 142.757L371.333 143.279 371.555 144.623 369.85 146.046 373.025 148.609 379.195 146.388 379.687 143.759 383.571 141.334 385.059 135.716 386.17 134.522 385.017 132.517 388.775 130.194 388.294 129.522 386.56 129.63 386.404 131.226 384.075 131.202 384.033 129.072 383.283 128.177 382.022 129.324 382.058 130.374 380.156 131.094 376.644 130.872 372.083 135.65 368.001 135.278z"/>
        <path fill="#212121" fill-rule="nonzero" d="M374.97 151.274L374.82 152.468 372.743 153.29 372.593 155.235 374.97 155.235 375.786 154.563 380.312 154.563 384.393 158.152 384.915 156.429 387.958 156.429 388.03 154.263 384.915 151.274 385.582 149.629 388.775 149.407 393.078 140.434 390.701 138.567 389.813 135.428 395.599 134.906 392.184 130.044 390.365 129.552 389.621 130.452 389.063 130.494 385.648 132.661 386.764 134.534 385.504 135.878 383.943 141.634 380.084 144.101 379.561 146.796 373.409 148.957z"/>
        <path fill="#212121" fill-rule="nonzero" d="M404.878 185.528L406.511 179.621 406.439 172.371 415.79 162.275 415.79 159.881 417.717 159.13 417.645 156.363 415.568 152.324 416.756 150.157 419.355 152.552 422.693 152.702 422.693 154.046 421.654 155.169 421.876 155.769 423.659 155.841 424.031 157.858 424.553 157.858 425.892 155.463 426.558 149.185 428.785 147.612 428.857 145.445 427.968 143.723 426.558 143.651 421.036 147.3 421.384 149.647 417.507 149.635 416.138 147.96 415.394 148.056 415.646 150.385 407.261 149.785 402.063 147.468 401.787 144.617 398.324 142.468 398.282 138.045 395.905 135.326 390.443 135.848 391.037 138.225 393.714 140.392 389.087 149.863 385.99 150.097 385.479 151.238 388.529 154.059 388.379 156.91 385.263 156.861 384.927 158.278 387.514 158.164 387.586 159.286 385.732 160.259 386.92 162.503 389.219 163.254 390.629 162.209 391.296 160.343 392.112 159.971 393.078 160.943 392.784 163.338 392.118 164.46 392.268 166.405 402.129 186.872z"/>
        <path fill="#212121" fill-rule="nonzero" d="M402.531 147.15L407.381 149.347 415.154 149.923 414.86 148.044 409.668 146.616 405.262 143.993 402.255 144.587zM417.717 149.173L420.862 149.197 420.544 147.456 416.786 147.9zM416.102 152.342L418.143 156.219 418.203 159.244 418.575 160.055 420.97 160.097 422.326 158.794 423.311 159.388 423.509 161.231 424.295 160.739 424.343 158.386 423.683 158.308 423.269 156.309 421.6 156.249 421.186 155.139 422.206 153.776 422.224 153.104 419.259 153.104 416.889 150.919z"/>
        <path fill="#212121" fill-rule="nonzero" d="M435.555 178.589L436.762 176.897 435.621 174.802 434.547 174.598 434.343 171.08 432.734 167.965 432.266 168.71 431.192 170.534 429.847 170.738 429.175 169.856 428.839 167.485 427.83 165.589 423.725 161.717 424.733 161.051 424.919 158.248 426.42 155.727 427.068 149.455 429.241 147.972 429.313 145.686 430.615 146.118 432.668 149.089 431.144 152.354 432.17 154.917 434.709 155.913 435.171 158.704 438.58 159.232 437.638 160.859 433.34 162.551 432.872 165.324 436.029 169.382 436.161 171.549 435.423 172.293 435.489 172.971 437.842 176.422 437.908 180.006 437.218 181.254z"/>
        <path fill="#212121" fill-rule="nonzero" d="M439.516 163.842L439.516 166.885 440.189 167.221 443.28 165.733 443.886 165.937 447.577 170.198 447.445 173.109 446.239 172.905 445.164 172.227 444.36 172.293 442.95 174.658 443.22 175.942 444.36 176.548 444.294 177.971 443.49 178.379 440.735 176.482 440.735 174.79 439.595 174.724 439.126 175.468 438.886 183.043 440.669 186.296 443.826 189.339 443.694 190.221 442.013 190.155 440.471 187.856 438.856 187.856 436.84 186.23 436.233 184.537 437.104 183.115 437.404 181.83 438.352 180.15 438.31 176.284 435.993 172.935 435.897 172.527 436.647 171.771 436.473 169.112 433.388 165.204 433.748 162.954 437.572 161.339z"/>
        <path fill="#212121" fill-rule="nonzero" d="M447.43 197.65l.213 1.916-1.476-.138-1.265-.767 2.528-1.011zm-7.241-9.343l1.62 2.328 2.257.102.156-.696 1.873 3.98 1.278 3.109.003.039-.012-.031-2.997 1.198-2.096-1.272-1.614-2.503-.27-3.517-1.207-2.707 1.009-.03zM446.299 181.368L450.866 177.983 451.269 172.641 448.91 174.268 447.685 173.583 446.023 173.361 445.092 172.707 444.642 172.731 443.424 174.73 443.622 175.654 444.858 176.344 444.708 178.223 443.844 178.745z"/>
        <path fill="#212121" fill-rule="nonzero" d="M439.384 157.552L438.178 161.069 440.195 163.638 439.859 166.477 440.195 166.615 443.55 164.988 448.051 170.018 447.943 173.187 448.922 173.715 451.341 171.753 451.143 170.198 444.162 163.566 444.228 162.551 445.098 161.945 444.492 160.253 441.605 159.779 440.837 156.813z"/>
        <path fill="#212121" fill-rule="nonzero" d="M447.307 182.857L447.439 184.141 449.318 184.345 451.599 181.302 453.747 180.696 454.888 177.587 454.354 172.581 452.139 169.538 449.804 167.671 446.833 162.569 448.964 159.004 445.915 155.505 443.472 155.397 441.275 156.579 441.929 159.406 444.858 159.923 445.645 162.101 444.612 162.774 444.678 163.314 451.551 170.036 451.821 172.011 451.407 178.253 446.593 181.734zM334.756 124.102L337.205 125.23 338.711 125.224 341.298 124.522 341.946 123.508 334.294 120.645 332.793 121.539zM344.233 128.736L343.387 129.726 341.346 129.372 338.813 127.103 338.951 125.615 341.352 124.978zM341.76 124.708L344.587 128.417 345.571 128.099 347.192 129.798 347.894 126.821 349.653 127.103 349.581 126.251 346.688 123.718 346.136 125.206 342.366 123.676z"/>
        <path fill="#212121" fill-rule="nonzero" d="M340.578 130.578L340.65 131.785 341.562 133.063 344.797 136.604 344.305 138.021 343.741 138.021 343.459 139.437 345.289 141.778 346.976 141.922 350.355 146.598 352.252 146.742 353.728 147.804 353.8 149.929 359.64 153.332 361.819 153.332 363.158 152.198 364.844 152.126 365.829 154.395 372.137 155.271 372.323 152.954 374.412 152.198 374.508 151.37 372.845 149.101 369.142 146.124 371.086 144.353 370.948 143.573 368.512 143.195 367.479 134.972 367.359 133.081 360.751 130.554 357.822 131.214 356.183 133.225 354.731 133.129 354.311 133.483 351.075 133.273 346.994 130.296 345.475 128.634 344.779 128.802 343.525 130.236 341.31 129.816z"/>
        <path fill="#212121" fill-rule="nonzero" d="M333.399 125.975L328.477 125.831 325.524 124.06 322.643 123.988 319.336 126.329 316.239 126.473 315.957 128.243 312.44 128.243 311.035 129.522 311.035 130.23 311.882 130.938 311.882 131.719 311.527 132.643 311.882 133.423 313.01 132.859 314.138 134.065 313.856 134.918 313.436 135.488 314.066 136.196 317.163 136.832 319.342 135.908 319.342 134.564 320.399 134.774 322.932 136.262 325.674 135.836 326.869 134.702 327.643 134.984 327.643 136.262 328.7 136.262 329.612 134.492 337.631 133.639 341.13 133.213 340.206 132.001 340.188 130.362 340.89 129.522 338.333 127.469 338.471 125.699 337.066 125.699 334.738 124.558zM343.579 175.168L343.579 177.677 345.655 179.561 360.289 173.601 360.427 171.963 358.08 167.749 352.192 169.628 348.813 172.953 344.893 170.636 342.714 172.599zM362.99 165.006L363.776 161.255 362.804 160.697 363.206 156.675 364.052 156.183 364.958 157.606 370.354 160.427 370.354 161.993 363.818 171.615 360.811 171.717 358.554 167.563z"/>
        <path fill="#212121" fill-rule="nonzero" d="M356.453 160.109L362.371 160.631 362.786 156.345 363.926 155.721 364.238 154.155 362.371 154.677 360.295 157.816 355.931 158.02zM354.791 156.873L355.715 157.576 356.555 157.498 356.867 154.467 356.141 153.944 355.103 154.467zM348.146 146.622L347.21 147.564 347.312 149.449 349.491 150.283 349.497 147.354z"/>
        <path fill="#212121" fill-rule="nonzero" d="M354.13 156.861L355.487 157.942 356.093 160.571 362.569 161.081 363.302 161.465 362.575 164.706 358.32 167.215 352.096 169.1 348.777 172.341 344.833 170.042 342.444 172.131 339.119 166.699 336.838 165.655 336.01 164.4 336.01 161.681 327.709 151.646 327.397 149.869 329.786 149.869 332.691 147.36 332.793 146.106 331.965 145.271 333.627 143.915 337.157 144.125 343.177 149.143 346.73 148.981 346.958 149.857 349.923 150.997zM327.307 138.051L329 138.759 328.928 142.985 330.62 142.949 332.313 141.67 332.949 141.562 336.79 138.507 337.565 134.071 329.888 134.852 329.078 136.628 327.517 136.526z"/>
        <path fill="#212121" fill-rule="nonzero" d="M337.169 138.693L333.291 141.922 333.537 143.447 337.325 143.705 343.357 148.615 346.73 148.519 346.82 147.384 348.056 146.058 349.785 147.036 350.013 146.82 346.67 142.372 345.085 142.276 342.979 139.569 343.399 137.577 344.041 137.493 344.263 136.61 341.394 133.591 338.105 134.065zM327.379 148.669L327.313 149.455 329.636 149.455 332.235 147.162 332.301 146.292 331.238 145.205 333.141 143.627 332.865 142.162 332.343 142.282 330.758 143.417 328.856 143.519zM327.271 139.683L326.779 141.46 328.471 141.604 328.579 139.083 327.235 138.513zM325.759 144.905L326.989 148.525 328.399 143.237 328.399 142.102 326.707 141.886zM326.179 137.487L323.892 139.653 322.799 139.617 321.989 139.047 322.097 137.985 323.754 137.877 325.44 136.952z"/>
        <path fill="#EB7227" fill-rule="nonzero" d="M309.997 59.417L309.889 58.421 309.121 57.977 309.229 56.758 309.889 56.758 309.889 56.092 307.026 55.318 302.734 55.762 302.296 57.647 301.306 57.316 300.646 56.206 298.551 56.314 298.329 58.421 297.339 58.865 296.786 57.755 292.381 61.302 293.263 62.298 291.613 63.073 287.867 70.503 286.547 71.391 286.655 72.058 287.975 72.724 287.645 74.164 285.442 74.05 284.782 73.276 283.354 74.939 282.471 75.605 282.249 77.159 281.481 77.604 279.5 78.048 278.51 81.157 279.17 86.259 279.938 88.587 280.821 89.476 282.801 89.368 285.664 86.595 286.763 84.71 287.093 87.483 288.966 84.158 289.074 74.837 290.598 73.876 291.054 68.733 295.676 62.076 297.879 61.302 298.869 60.083 302.17 60.858 303.821 61.854 304.373 59.081 307.128 57.419 308.785 60.306zM266.068 90.142L266.506 90.808 269.039 90.808 269.039 91.919 268.378 92.807 268.816 95.136 270.245 97.909 271.343 100.46 273.102 101.126 273.87 102.458 273.762 103.677 272.664 104.343 272.556 104.895 273.324 105.339 272.664 106.228 271.121 106.894 268.15 106.564 263.523 108.671 261.98 107.896 266.386 105.345 265.833 105.015 263.523 104.793 264.951 102.686 265.173 100.91 267.046 100.688 266.716 97.249 264.513 97.14 263.853 96.366 263.961 93.815 262.64 93.923 263.961 89.488 266.386 87.711 267.166 88.479z"/>
        <path fill="#EB7227" fill-rule="nonzero" d="M260.564 96.138L260.456 97.915 261.776 98.803 263.205 98.473 263.757 97.477 262.544 95.916z"/>
        <path fill="#EB7227" fill-rule="nonzero" d="M262.652 102.566L257.809 104.343 256.266 104.343 255.168 103.569 255.168 102.903 257.593 101.348 256.932 100.016 257.04 98.131 259.135 98.239 260.095 95.982 259.969 97.987 261.596 99.277 263.199 98.965zM299.313 62.856L301.516 62.856 302.728 65.185 303.059 69.177 300.087 71.283 300.087 73.39 297.993 76.277 296.78 76.385 295.13 79.158 295.238 81.823 298.101 83.93 297.879 85.148 296.78 86.811 295.13 88.251 295.238 93.023 292.705 93.911 291.823 95.796 290.61 95.796 289.95 92.471 287.195 88.245 289.458 84.458 289.614 75.101 291.174 74.242 291.552 68.889 296 62.52 298.137 61.77z"/>
        <path fill="#212121" fill-rule="nonzero" d="M304.823 69.735L305.591 71.175 304.823 72.172 300.97 76.385 300.31 78.606 301.192 81.823 304.163 84.044 308.124 82.159 311.317 81.715 314.288 76.943 312.086 71.728 309.991 66.734 310.321 63.517 309.001 63.295 308.658 60.948 306.882 58.049 304.913 59.411 304.139 62.574 302.05 61.32 299.145 60.612 298.497 61.368 299.613 62.376 301.648 62.34 303.287 64.987 303.581 69.189zM306.24 89.188L306.33 91.487 310.141 93.815 311.702 93.359 311.612 91.607 310.351 89.854zM302.632 87.585L302.092 88.131 302.482 88.708 303.413 88.768 303.893 88.071 303.563 87.615zM302.572 89.974L300.952 91.913 300.952 92.819 301.492 93.029 302.542 93.059 304.283 91.637 304.523 91.15 303.473 90.064z"/>
        <path fill="#212121" fill-rule="nonzero" d="M304.703 91.823L302.932 93.515 301.432 93.515 301.522 95.634 300.622 97.297 303.863 97.327 304.793 97.207 305.723 98.329 307.854 98.239 309.895 95.64 309.775 94.097 305.994 91.853z"/>
        <path fill="#212121" fill-rule="nonzero" d="M306.804 100.292L306.444 101.474 306.504 102.41 306.834 103.533 308.695 102.476 311.005 102.536 312.626 103.203 316.737 103.203 317.938 100.328 318.658 99.241 318.658 98.515 316.077 94.884 313.796 93.977 311.936 93.767 310.315 94.283 310.375 95.916 308.124 98.761 305.904 98.809z"/>
        <path fill="#212121" fill-rule="nonzero" d="M306.894 104.829L307.014 105.826 306.594 106.792 305.633 108.641 304.823 109.007 303.773 108.551 303.143 108.581 301.612 109.157 299.871 108.641 297.05 106.642 294.289 105.159 293.179 103.467 292.969 99.475 295.13 97.597 297.951 96.66 299.001 96.54 298.581 97.387 298.851 97.717 303.599 97.807 304.619 97.777 306.3 100.352 305.88 101.408 306.06 102.65 306.384 103.893z"/>
        <path fill="#EB7227" fill-rule="nonzero" d="M260.864 122.043L259.321 121.347 258.577 121.401 257.677 123.274 257.995 125.2 260.918 125.47 261.29 126.701 260.017 133.873 260.071 135.158 262.142 136.28 264.531 136.442 269.309 135.266 271.643 132.325 271.697 129.33 275.839 125.584 276.049 123.928 272.28 123.874 268.51 122.043z"/>
        <path fill="#212121" fill-rule="nonzero" d="M257.677 130.98L256.614 131.941 256.722 132.529 257.466 133.759 256.986 135.26 257.785 135.53 259.645 135.314 259.537 133.813 260.756 126.857 260.492 125.897 258.049 125.789zM275.203 129.696L275.413 130.554 276.793 130.554 277.375 129.912 276.157 129.372zM284.446 127.877L284.656 130.98 285.929 131.196 286.883 130.284 286.883 127.343 286.037 127.073zM285.028 124.396L284.92 125.464 285.874 126.053 286.247 125.999 286.457 124.444 286.199 123.22zM274.41 106.582L271.758 109.469 270.959 109.523 269.897 108.773 269.207 108.935 268.678 110.591 264.801 110.699 264.909 111.558 267.562 113.322 270.641 115.783 270.587 118.724 268.943 121.611 272.502 123.322 276.115 123.43 277.231 122.145 279.512 122.199 280.148 122.788 282.429 122.625 283.6 121.125 282.111 119.36 282.003 118.238 282.321 117.007 281.577 115.939 280.305 116.311 280.142 115.351 282.957 112.248 282.957 110.375 281.097 109.307 280.142 109.145 275.737 106.258zM278.834 101.336L279.41 101.858 279.47 103.197 278.894 103.083 278.258 102.092 276.739 104.499 279.074 104.985 279.944 105.904 280.407 105.916 280.713 103.839 282.183 103.221 281.553 99.998zM276.079 105.91L280.208 108.635 281.397 108.917 281.439 107.626 280.401 106.462 279.764 106.462 278.894 105.471 276.463 104.949z"/>
        <path fill="#EB7227" fill-rule="nonzero" d="M284.326 99.415L284.326 97.903 286.121 97.609 287.105 98.599 288.143 98.713 289.764 98.011 291.21 98.419 292.483 99.523 292.657 103.659 293.929 105.351 292.255 105.585 289.476 107.332 289.71 107.914 292.195 110.243 292.021 111.408 289.71 112.572 287.567 112.632 287.045 113.736 285.947 113.736 285.424 112.572 283.516 112.104 283.456 110.183 281.835 109.079 282.009 107.68 280.911 106.168 281.199 104.187 282.699 103.485 282.183 99.763zM283.071 92.687L282.981 94.482 284.116 97.441 285.892 97.104 285.67 94.686 286.895 93.317 286.871 92.243 286.007 90.004 285.562 89.932z"/>
        <path fill="#212121" fill-rule="nonzero" d="M287.807 94.794L287.075 95.466 287.165 96.516 288.9 96.564 288.99 95.376 288.365 94.818zM297.333 90.136L297.969 91.607 299.091 90.514 298.599 89.134zM280.629 115.453L280.683 115.735 281.757 115.399 282.723 116.743 284.356 116.167 285.484 117.043 285.947 116.779 287.339 114.595 286.985 114.259 285.61 114.222 284.944 112.86 283.246 112.668zM294.343 109.961L295.22 109.961 296.642 110.975 299.277 108.785 296.72 106.96 294.187 105.736 292.453 106.048 290.1 107.56 292.561 109.961zM297.423 111.684L297.477 112.308 302.056 112.206 305.441 110.747 305.387 109.265 304.739 109.553 303.809 109.055 303.239 109.031 301.738 109.631 299.697 109.139 297.008 111.317z"/>
        <path fill="#EB7227" fill-rule="nonzero" d="M287.489 113.922L287.825 114.499 289.224 114.21 290.412 114.21 291.703 115.303 294.445 114.805 296.462 113.604 296.978 112.794 296.9 111.75 295.088 110.393 292.657 110.417 292.453 111.798 289.896 113.046 287.879 113.112z"/>
        <path fill="#212121" fill-rule="nonzero" d="M296.852 113.892L296.906 115.561 298.017 116.131 301.432 116.233 306.192 112.224 306.216 111.335 305.699 111.077 302.26 112.638 297.549 112.8zM294.86 115.147L292.015 115.771 292.585 117.416 294.578 117.44 296.414 115.903 296.384 114.235z"/>
        <path fill="#EB7227" fill-rule="nonzero" d="M294.758 117.884L292.609 117.884 292.351 119.396 293.335 119.654 293.827 118.922 294.602 119.6 295.22 121.761 299.463 123.742 299.883 123.262 295.58 118.82 296.018 118.01 300.105 117.854 300.52 116.551 297.855 116.629 296.876 116.137z"/>
        <path fill="#212121" fill-rule="nonzero" d="M296.162 118.772L300.19 122.926 301.666 120.753 301.612 119.894 300.322 118.328 296.384 118.406z"/>
        <path fill="#EB7227" fill-rule="nonzero" d="M282.489 118.172L282.591 119.198 284.026 120.873 286.283 120.795 291.264 126.581 294.373 127.481 296.21 129.216 296.648 133.171 297.633 132.595 298.485 130.44 298.275 128.892 299.733 128.76 299.943 127.883 295.832 125.915 291.931 122.079 290.376 119.786 289.998 117.608 291.985 117.134 291.474 115.699 290.256 114.673 289.206 114.625 287.741 115.027 286.361 116.959 285.526 117.512 284.236 116.719 282.861 117.23z"/>
        <path fill="#212121" fill-rule="nonzero" d="M294.097 132.391L291.126 132.859 291.228 133.663 293.899 135.008 294.301 135.446 295.004 135.548 294.968 132.859z"/>
        <path fill="#EB7227" fill-rule="nonzero" d="M294.067 137.535L294.103 138.645 295.004 138.945 295.406 138.609 295.07 137.331zM307.11 103.905L307.542 105.754 305.934 109.145 305.946 110.639 306.702 111.119 311.552 111.359 312.908 110.237 314.36 110.723 316.443 113.502 314.919 116.239 316.731 116.767 319.102 114.036 320.459 114.283 321.719 115.159 320.609 116.623 322.109 118.964 323.706 118.964 324.528 117.404 326.221 117.061 326.269 115.795 323.124 115.309 323.22 113.946 326.269 113.946 329.558 111.311 331.01 110.045 331.25 106.048 324.768 105.465 322.109 101.714 320.273 101.084 318.046 101.18 317.043 103.659 312.482 103.719 310.999 103.035 308.851 102.927z"/>
        <path fill="#212121" fill-rule="nonzero" d="M313.82 114.529L313.664 116.149 314.33 116.179 315.909 113.508 314.012 111.155 312.938 110.711 311.96 111.666z"/>
        <path fill="#212121" fill-rule="nonzero" d="M306.66 112.488L303.185 115.381 306.09 119.642 307.95 120.945 311.299 120.945 312.404 120.021 313.886 119.828 314.991 120.495 316.947 118.268 316.569 117.152 314.583 116.641 313.226 116.575 313.292 114.667 311.491 111.834 306.816 111.6zM302.448 123.393L302.421 122.831 301.628 121.719 300.346 123.532 300.598 124.294 301.642 124.486zM302.837 115.764L301.606 116.689 301.006 116.689 300.598 117.961 302.05 119.648 302.146 120.987 301.941 121.277 302.924 122.656 302.958 123.388 303.665 124.072 305.969 123.37 305.777 120.093z"/>
        <path fill="#212121" fill-rule="nonzero" d="M306.468 123.466L307.476 125.566 311.263 125.633 312.968 124.426 314.643 123.76 314.234 121.851 314.613 120.831 313.76 120.387 312.59 120.483 311.672 121.407 307.818 121.437 306.372 120.477zM301.918 127.667L302.71 129.162 303.281 129.096 304.259 127.313 303.689 126.515 303.467 124.54 302.71 123.838 301.918 124.9zM304.037 124.516L304.133 126.233 304.607 126.839 307.008 125.723 306.06 123.85z"/>
        <path fill="#212121" fill-rule="nonzero" d="M303.467 130.404L306.246 131.803 307.572 132.313 306.876 133.045 305.327 133.201 305.105 133.903 305.639 135.11 307.374 136.034 308.13 136.1 308.226 134.029 309.361 132.661 306.264 129 306.672 127.757 307.398 127.727 308.502 128.616 309.199 128.267 309.421 127.025 312.674 127.055 312.8 125.146 311.443 126.101 307.464 126.005 304.877 127.343 303.533 129.606zM313.226 126.995L315.087 126.425 315.939 125.855 315.687 124.93 314.805 124.228 313.322 124.864zM310.543 137.433L310.951 138.039 312.374 138.039 313.322 137.691 313.64 138.075 313.01 138.903 310.231 138.999 309.727 138.333 309.193 138.015 309.565 137.403z"/>
        <path fill="#EB7227" d="M447.643 199.566L447.427 197.646 444.907 198.661 446.167 199.428z"/>
    </g>
</svg>
