<svg id="images-quote-orange" xmlns="http://www.w3.org/2000/svg" width="38" height="28" viewBox="0 0 38 28">
    <path fill="#EB7227" d="M30.283 28c1.074 0 2.084-.182 3.028-.545.944-.364 1.758-.867 2.442-1.512.684-.644 1.23-1.387 1.636-2.23.407-.842.611-1.759.611-2.75 0-.991-.155-1.892-.464-2.701-.31-.81-.733-1.503-1.27-2.081-.537-.579-1.156-1.033-1.856-1.363-.7-.33-1.44-.496-2.222-.496-.521 0-.985.074-1.392.223-.407.149-.774.322-1.1.52-.325.199-.634.372-.927.52-.293.15-.586.224-.88.224-.065 0-.114-.149-.146-.446-.033-.298-.049-.628-.049-.991 0-1.025.269-2.04.806-3.048s1.27-1.95 2.198-2.825c.928-.875 2.019-1.66 3.272-2.354 1.254-.694 2.597-1.239 4.03-1.635V0c-2.344.165-4.55.694-6.618 1.586-2.068.892-3.883 2.073-5.446 3.543-1.563 1.47-2.8 3.197-3.712 5.179-.912 1.982-1.368 4.13-1.368 6.442 0 1.553.244 3.015.733 4.386.488 1.371 1.164 2.569 2.027 3.593.863 1.024 1.864 1.826 3.004 2.404 1.14.578 2.36.867 3.663.867zM9.476 28c1.074 0 2.084-.182 3.028-.545.944-.364 1.766-.867 2.466-1.512.7-.644 1.246-1.387 1.637-2.23.39-.842.586-1.759.586-2.75 0-.991-.155-1.892-.464-2.701-.31-.81-.733-1.503-1.27-2.081-.537-.579-1.156-1.033-1.856-1.363-.7-.33-1.457-.496-2.271-.496-.489 0-.937.074-1.344.223-.407.149-.773.322-1.099.52-.325.199-.626.372-.903.52-.277.15-.546.224-.806.224-.098 0-.171-.149-.22-.446-.049-.298-.073-.628-.073-.991 0-1.025.269-2.04.806-3.048s1.27-1.95 2.198-2.825c.928-.875 2.019-1.66 3.272-2.354 1.254-.694 2.597-1.239 4.03-1.635V0c-2.312.165-4.51.694-6.594 1.586-2.084.892-3.907 2.073-5.47 3.543C3.566 6.6 2.32 8.326 1.392 10.308.464 12.29 0 14.438 0 16.75c0 1.553.252 3.015.757 4.386s1.18 2.569 2.027 3.593c.847 1.024 1.848 1.826 3.004 2.404 1.156.578 2.385.867 3.688.867z"/>
</svg>
