<svg id="images-active-state-1" xmlns="http://www.w3.org/2000/svg" width="195" height="293" viewBox="0 0 195 293">
    <g fill="none" fill-rule="evenodd">
        <path fill="#EB7227" d="M0 0c69.677 0 134.05 37.23 168.878 97.667 34.83 60.436 34.83 134.897 0 195.333L67.551 234.4c13.944-24.182 13.944-53.951 0-78.133C53.608 132.084 27.867 117.2 0 117.2V0z"/>
        <path fill="#FFF" fill-rule="nonzero" d="M116.98 119.552c-1.635 0-3.11.985-3.735 2.497-.626 1.511-.28 3.251.878 4.407 1.158 1.156 2.898 1.5 4.408.873 1.511-.627 2.495-2.103 2.493-3.739-.005-2.23-1.813-4.036-4.043-4.038zm0 8.072c-2.227 0-4.033-1.806-4.033-4.034 0-2.227 1.806-4.033 4.034-4.033 2.227 0 4.033 1.806 4.033 4.033-.002 2.227-1.807 4.031-4.033 4.034zM118.046 118.602v-5.542c0-.585-.475-1.06-1.06-1.06-.586 0-1.06.475-1.06 1.06v5.542c.346-.073.7-.11 1.055-.11.358 0 .715.037 1.065.11z"/>
        <path fill="#FFF" fill-rule="nonzero" d="M121.024 123.59c-.011-1.814-1.228-3.4-2.978-3.88-.068 0-.14-.028-.212-.043 1.628.352 2.872 1.668 3.13 3.314.258 1.645-.522 3.28-1.964 4.113 1.255-.72 2.027-2.057 2.024-3.504zM112.947 123.59c.004-1.896 1.328-3.534 3.18-3.937-.067 0-.134 0-.202.043-1.573.426-2.737 1.756-2.947 3.373-.211 1.616.571 3.2 1.983 4.015-1.247-.721-2.015-2.053-2.014-3.494zM117.757 119.639c-.255-.056-.515-.085-.776-.087-.26.002-.518.03-.771.087.253-.053.512-.079.77-.078.261 0 .521.025.777.078zM116.21 127.547c.253.056.511.085.77.087.262-.002.522-.031.777-.087-.256.053-.516.078-.776.077-.26.001-.518-.024-.771-.077z"/>
        <path fill="#FFF" fill-rule="nonzero" d="M114.957 127.084c.302.177.626.313.963.405l.203.044c-.41-.09-.804-.245-1.166-.458v.01zM117.834 127.533c.072 0 .144 0 .212-.044.338-.09.662-.227.964-.405-.366.21-.763.362-1.176.449zM136.72 126.482c-.18-.216-.44-.35-.72-.374-.28-.024-.56.066-.773.249l-6.507 5.489c-.475.423-.84.956-1.065 1.552l-1.368 4.01-1.581-4.338c-.158-.444-.496-.801-.93-.984-.434-.184-.926-.176-1.354.02l-1.87.829-1.272-4.82c-.39.2-.805.348-1.234.44-.14.028-.28.047-.42.067l-.395.033h-.506c-.131 0-.262-.01-.39-.028-.135 0-.275-.039-.41-.068-.434-.09-.854-.24-1.248-.443l-1.928 7.315c-.023.036-.05.068-.082.097l-1.296.327c-.693.205-1.285.663-1.658 1.282l-2.535 4.579-1.619-.993c-.147-.12-.264-.271-.342-.443l-2.525-7.99c-.129-.563-.61-.974-1.186-1.013-.577-.01-1.093.358-1.272.906l-3.152 7.518c-.146.35-.095.75.134 1.052.23.302.603.458.979.41.376-.048.697-.293.844-.643l2.298-5.489 1.86 5.885c.228.647.657 1.205 1.225 1.59l1.976 1.258c.396.256.88.335 1.338.22.457-.117.845-.418 1.071-.832l2.752-4.964c.087-.11.2-.199.328-.255l1.291-.328c.769-.222 1.371-.82 1.6-1.586l1.152-4.337v18.728c0 .585.475 1.06 1.06 1.06.586 0 1.06-.475 1.06-1.06v-18.651l.598 2.265c.111.473.428.871.864 1.086.435.214.944.223 1.387.023l1.97-.873 2.223 6.068c.16.554.657.942 1.233.964.575-.017 1.07-.409 1.22-.964l2.115-6.198c.1-.232.245-.443.424-.622l6.511-5.532c.445-.38.5-1.046.125-1.494z"/>
        <path fill="#FFF" fill-rule="nonzero" d="M117.834 119.653h-.077c-.256-.053-.516-.078-.776-.077-.26-.001-.518.024-.771.077h-.082c-1.629.349-2.874 1.665-3.133 3.31-.259 1.646.523 3.28 1.966 4.112.362.213.756.368 1.167.458h.082c.253.052.512.078.77.077.261.001.521-.025.777-.077h.077c1.858-.398 3.186-2.04 3.186-3.94s-1.328-3.542-3.186-3.94zm-.853 5.841c-.908.001-1.694-.632-1.887-1.52-.192-.887.261-1.788 1.088-2.163.828-.375 1.804-.122 2.345.607.54.73.499 1.738-.1 2.42-.366.417-.893.655-1.446.656zM116.128 119.653h.082-.082zM117.757 119.639h.077-.077zM117.834 127.533h-.077.077zM116.21 127.547h-.082.082z"/>
    </g>
</svg>
