<svg id="images-comment-box" xmlns="http://www.w3.org/2000/svg" width="293" height="211" viewBox="0 0 293 211">
    <defs>
        <linearGradient id="o9ooed6kga" x1="100%" x2="5.966%" y1="75.93%" y2="33.543%">
            <stop offset="0%" stop-color="#EE8544"/>
            <stop offset="100%" stop-color="#EB7227"/>
        </linearGradient>
    </defs>
    <g fill="none" fill-rule="evenodd">
        <path fill="url(#o9ooed6kga)" d="M293 0v185h-29v26l-26-26H0V0h293z"/>
        <path fill="#FFF" fill-rule="nonzero" d="M46.53 76.12l2.55-10.77h.15l2.82 10.77h4.8l5.31-19.32h-5.1l-2.58 10.89h-.12L51.51 56.8h-4.68l-2.55 10.56h-.15L41.49 56.8H36.3l5.49 19.32h4.74zM68.61 76v-7.83h6.51V76h5.04V56.83h-5.04v7.11h-6.51V56.8h-5.04V76h5.04zm18.33 0l.81-3.18h6.72l.84 3.18h5.4l-6.24-19.2h-6.39L81.75 76h5.19zm6.45-7.14h-4.56l2.28-8.25h.12l2.16 8.25zM108.63 76V61.03h4.11l1.59-4.23H99.06v4.23h4.62V76h4.95zm24.54.24c1.46 0 2.81-.25 4.05-.75 1.24-.5 2.31-1.19 3.21-2.07.9-.88 1.605-1.92 2.115-3.12.51-1.2.765-2.5.765-3.9 0-1.38-.255-2.68-.765-3.9-.51-1.22-1.215-2.28-2.115-3.18-.9-.9-1.97-1.61-3.21-2.13-1.24-.52-2.59-.78-4.05-.78-1.42 0-2.76.26-4.02.78-1.26.52-2.355 1.23-3.285 2.13-.93.9-1.665 1.96-2.205 3.18-.54 1.22-.81 2.52-.81 3.9 0 1.4.235 2.7.705 3.9.47 1.2 1.15 2.24 2.04 3.12.89.88 1.975 1.57 3.255 2.07 1.28.5 2.72.75 4.32.75zm0-4.5c-.84 0-1.575-.135-2.205-.405-.63-.27-1.155-.645-1.575-1.125-.42-.48-.735-1.04-.945-1.68-.21-.64-.315-1.34-.315-2.1 0-.74.12-1.43.36-2.07.24-.64.58-1.2 1.02-1.68.44-.48.97-.86 1.59-1.14.62-.28 1.31-.42 2.07-.42.8 0 1.515.14 2.145.42.63.28 1.16.66 1.59 1.14.43.48.76 1.045.99 1.695.23.65.345 1.335.345 2.055 0 .72-.115 1.405-.345 2.055-.23.65-.565 1.215-1.005 1.695-.44.48-.97.86-1.59 1.14-.62.28-1.33.42-2.13.42zm20.76 4.56c1.06 0 2.085-.135 3.075-.405.99-.27 1.865-.735 2.625-1.395s1.365-1.545 1.815-2.655c.45-1.11.675-2.505.675-4.185V56.83h-5.04v11.22c0 1.44-.28 2.475-.84 3.105-.56.63-1.29.945-2.19.945-.64 0-1.175-.07-1.605-.21-.43-.14-.77-.37-1.02-.69-.25-.32-.425-.735-.525-1.245-.1-.51-.15-1.145-.15-1.905V56.8h-5.01v10.86c0 1.68.205 3.075.615 4.185.41 1.11.985 1.995 1.725 2.655.74.66 1.605 1.125 2.595 1.395.99.27 2.075.405 3.255.405zm16.62-.3v-5.49h2.19L175.8 76h5.61l-4.11-6.66c1.06-.64 1.84-1.465 2.34-2.475.5-1.01.75-2.075.75-3.195 0-.92-.16-1.795-.48-2.625-.32-.83-.8-1.56-1.44-2.19-.64-.63-1.435-1.13-2.385-1.5-.95-.37-2.055-.555-3.315-.555h-7.26V76h5.04zm1.89-9.51h-1.89v-5.58h1.8c.6 0 1.09.09 1.47.27.38.18.68.405.9.675.22.27.375.555.465.855.09.3.135.58.135.84 0 .34-.035.685-.105 1.035-.07.35-.21.665-.42.945-.21.28-.505.51-.885.69-.38.18-.87.27-1.47.27zM42.78 106v-5.01h1.35c1.34 0 2.51-.205 3.51-.615 1-.41 1.825-.945 2.475-1.605.65-.66 1.135-1.41 1.455-2.25.32-.84.48-1.7.48-2.58 0-.92-.16-1.81-.48-2.67-.32-.86-.8-1.62-1.44-2.28-.64-.66-1.44-1.19-2.4-1.59-.96-.4-2.09-.6-3.39-.6h-6.6V106h5.04zm1.53-9.03h-1.53v-6.06h1.44c.54 0 .985.105 1.335.315.35.21.63.47.84.78.21.31.36.635.45.975.09.34.135.64.135.9 0 .34-.045.69-.135 1.05-.09.36-.24.69-.45.99-.21.3-.485.55-.825.75-.34.2-.76.3-1.26.3zM58.23 106l.81-3.18h6.72l.84 3.18H72l-6.24-19.2h-6.39L53.04 106h5.19zm6.45-7.14h-4.56l2.28-8.25h.12l2.16 8.25zM78.93 106v-5.49h2.19l3.06 5.49h5.61l-4.11-6.66c1.06-.64 1.84-1.465 2.34-2.475.5-1.01.75-2.075.75-3.195 0-.92-.16-1.795-.48-2.625-.32-.83-.8-1.56-1.44-2.19-.64-.63-1.435-1.13-2.385-1.5-.95-.37-2.055-.555-3.315-.555h-7.26V106h5.04zm1.89-9.51h-1.89v-5.58h1.8c.6 0 1.09.09 1.47.27.38.18.68.405.9.675.22.27.375.555.465.855.09.3.135.58.135.84 0 .34-.035.685-.105 1.035-.07.35-.21.665-.42.945-.21.28-.505.51-.885.69-.38.18-.87.27-1.47.27zm19.44 9.51V91.03h4.11l1.59-4.23H90.69v4.23h4.62V106h4.95zm11.46 0V95.59h.12l7.62 10.41h4.26V86.8h-4.89v10.5h-.03l-7.71-10.5h-4.29V106h4.92zm28.74 0v-4.23h-8.25v-3.6h6.78V94h-6.78v-2.97h6.81l1.47-4.23H127.2V106h13.26zm7.92 0v-5.49h2.19l3.06 5.49h5.61l-4.11-6.66c1.06-.64 1.84-1.465 2.34-2.475.5-1.01.75-2.075.75-3.195 0-.92-.16-1.795-.48-2.625-.32-.83-.8-1.56-1.44-2.19-.64-.63-1.435-1.13-2.385-1.5-.95-.37-2.055-.555-3.315-.555h-7.26V106h5.04zm1.89-9.51h-1.89v-5.58h1.8c.6 0 1.09.09 1.47.27.38.18.68.405.9.675.22.27.375.555.465.855.09.3.135.58.135.84 0 .34-.035.685-.105 1.035-.07.35-.21.665-.42.945-.21.28-.505.51-.885.69-.38.18-.87.27-1.47.27zm17.19 9.75c1.1 0 2.085-.15 2.955-.45.87-.3 1.605-.71 2.205-1.23.6-.52 1.06-1.145 1.38-1.875.32-.73.48-1.515.48-2.355 0-.98-.205-1.82-.615-2.52-.41-.7-.92-1.3-1.53-1.8s-1.27-.935-1.98-1.305c-.71-.37-1.37-.705-1.98-1.005-.61-.3-1.12-.59-1.53-.87-.41-.28-.615-.6-.615-.96 0-.34.15-.585.45-.735.3-.15.68-.225 1.14-.225.48 0 .98.045 1.5.135.52.09 1.02.205 1.5.345.48.14.93.29 1.35.45.42.16.77.31 1.05.45l-.03-4.56c-.52-.26-1.045-.475-1.575-.645-.53-.17-1.045-.3-1.545-.39-.5-.09-.97-.155-1.41-.195-.44-.04-.82-.06-1.14-.06-.86 0-1.68.12-2.46.36s-1.47.595-2.07 1.065c-.6.47-1.075 1.06-1.425 1.77-.35.71-.525 1.525-.525 2.445 0 .92.21 1.71.63 2.37.42.66.94 1.235 1.56 1.725.62.49 1.295.91 2.025 1.26s1.405.685 2.025 1.005c.62.32 1.14.64 1.56.96.42.32.63.69.63 1.11 0 .48-.22.835-.66 1.065-.44.23-.95.345-1.53.345-.64 0-1.28-.07-1.92-.21-.64-.14-1.255-.325-1.845-.555-.59-.23-1.12-.5-1.59-.81-.47-.31-.855-.635-1.155-.975v5.04c.64.42 1.27.75 1.89.99.62.24 1.215.425 1.785.555.57.13 1.11.21 1.62.24s.975.045 1.395.045zm21.69-.24l.81-3.18h6.72l.84 3.18h5.4l-6.24-19.2h-6.39l-6.33 19.2h5.19zm6.45-7.14h-4.56l2.28-8.25h.12l2.16 8.25zm14.25 7.14v-5.49h2.19l3.06 5.49h5.61l-4.11-6.66c1.06-.64 1.84-1.465 2.34-2.475.5-1.01.75-2.075.75-3.195 0-.92-.16-1.795-.48-2.625-.32-.83-.8-1.56-1.44-2.19-.64-.63-1.435-1.13-2.385-1.5-.95-.37-2.055-.555-3.315-.555h-7.26V106h5.04zm1.89-9.51h-1.89v-5.58h1.8c.6 0 1.09.09 1.47.27.38.18.68.405.9.675.22.27.375.555.465.855.09.3.135.58.135.84 0 .34-.035.685-.105 1.035-.07.35-.21.665-.42.945-.21.28-.505.51-.885.69-.38.18-.87.27-1.47.27zm24.57 9.51v-4.23h-8.25v-3.6h6.78V94h-6.78v-2.97h6.81l1.47-4.23h-13.29V106h13.26zM43.62 136.24c1.1 0 2.085-.15 2.955-.45.87-.3 1.605-.71 2.205-1.23.6-.52 1.06-1.145 1.38-1.875.32-.73.48-1.515.48-2.355 0-.98-.205-1.82-.615-2.52-.41-.7-.92-1.3-1.53-1.8s-1.27-.935-1.98-1.305c-.71-.37-1.37-.705-1.98-1.005-.61-.3-1.12-.59-1.53-.87-.41-.28-.615-.6-.615-.96 0-.34.15-.585.45-.735.3-.15.68-.225 1.14-.225.48 0 .98.045 1.5.135.52.09 1.02.205 1.5.345.48.14.93.29 1.35.45.42.16.77.31 1.05.45l-.03-4.56c-.52-.26-1.045-.475-1.575-.645-.53-.17-1.045-.3-1.545-.39-.5-.09-.97-.155-1.41-.195-.44-.04-.82-.06-1.14-.06-.86 0-1.68.12-2.46.36s-1.47.595-2.07 1.065c-.6.47-1.075 1.06-1.425 1.77-.35.71-.525 1.525-.525 2.445 0 .92.21 1.71.63 2.37.42.66.94 1.235 1.56 1.725.62.49 1.295.91 2.025 1.26s1.405.685 2.025 1.005c.62.32 1.14.64 1.56.96.42.32.63.69.63 1.11 0 .48-.22.835-.66 1.065-.44.23-.95.345-1.53.345-.64 0-1.28-.07-1.92-.21-.64-.14-1.255-.325-1.845-.555-.59-.23-1.12-.5-1.59-.81-.47-.31-.855-.635-1.155-.975v5.04c.64.42 1.27.75 1.89.99.62.24 1.215.425 1.785.555.57.13 1.11.21 1.62.24s.975.045 1.395.045zm13.41-.24l.81-3.18h6.72l.84 3.18h5.4l-6.24-19.2h-6.39L51.84 136h5.19zm6.45-7.14h-4.56l2.28-8.25h.12l2.16 8.25zM79.59 136v-7.56l6.39-11.64h-5.4l-3.36 7.65h-.09l-3.36-7.65h-5.46l6.3 11.76V136h4.98zm12.51 0v-19.2h-5.22V136h5.22zm8.67 0v-10.41h.12l7.62 10.41h4.26v-19.2h-4.89v10.5h-.03l-7.71-10.5h-4.29V136h4.92zm24.54.27c1.14 0 2.32-.125 3.54-.375 1.22-.25 2.38-.635 3.48-1.155v-9.48h-4.71v6.18c-.36.1-.705.175-1.035.225-.33.05-.625.075-.885.075-.84 0-1.58-.125-2.22-.375-.64-.25-1.175-.605-1.605-1.065-.43-.46-.76-1.01-.99-1.65-.23-.64-.345-1.35-.345-2.13 0-.9.135-1.685.405-2.355.27-.67.645-1.23 1.125-1.68.48-.45 1.035-.79 1.665-1.02.63-.23 1.305-.345 2.025-.345.22 0 .505.01.855.03.35.02.77.085 1.26.195s1.05.28 1.68.51c.63.23 1.335.555 2.115.975v-4.95c-.54-.32-1.1-.575-1.68-.765-.58-.19-1.135-.335-1.665-.435-.53-.1-1.02-.165-1.47-.195-.45-.03-.835-.045-1.155-.045-1.48 0-2.855.26-4.125.78s-2.365 1.23-3.285 2.13c-.92.9-1.64 1.965-2.16 3.195-.52 1.23-.78 2.555-.78 3.975 0 1.48.215 2.815.645 4.005.43 1.19 1.065 2.215 1.905 3.075.84.86 1.88 1.52 3.12 1.98 1.24.46 2.67.69 4.29.69zm12.9.51l3.45-3.36-3.42-3.45-3.45 3.45 3.42 3.36zm7.68 0l3.45-3.36-3.42-3.45-3.45 3.45 3.42 3.36zm7.5 0l3.45-3.36-3.42-3.45-3.45 3.45 3.42 3.36z"/>
    </g>
</svg>
