<svg id="images-ic-phone" xmlns="http://www.w3.org/2000/svg" width="45" height="45" viewBox="0 0 45 45">
    <g fill="#FFF" fill-rule="evenodd">
        <rect width="45" height="45" fill-opacity=".1" rx="4"/>
        <path fill-rule="nonzero" stroke="#FFF" stroke-width=".7" d="M28.503 31.869c-.099 0-.2-.004-.302-.01-1.221-.083-2.444-.443-3.968-1.167-2.694-1.316-5.04-3.154-6.982-5.466l-.001-.001c-1.553-1.857-2.688-3.754-3.374-5.64-.342-.94-.678-2.07-.574-3.315.035-.785.37-1.508.968-2.068l1.516-1.517c.888-.888 2.105-.893 3.029-.01.284.264.562.55.83.825.135.138.27.277.41.415l1.2 1.2c.919.96.919 2.14.008 3.09-.265.265-.522.514-.778.763-.218.212-.436.423-.653.64.26.585.642 1.172 1.222 1.882 1.214 1.476 2.388 2.54 3.692 3.35l.028.018c.164.115.364.215.577.321l.174.088 1.421-1.421c.439-.44.964-.671 1.519-.671.555 0 1.08.232 1.52.67l2.46 2.46c.917.918.917 2.151 0 3.07l-.484.476c-.32.313-.622.609-.913.92-.635.725-1.493 1.098-2.545 1.098zM18.17 24.454c1.833 2.183 4.048 3.918 6.583 5.157 1.376.653 2.466.978 3.528 1.05.82.053 1.416-.168 1.878-.696.322-.345.648-.663.962-.971.158-.154.317-.31.475-.468.455-.456.455-.917 0-1.372l-2.46-2.46c-.418-.418-.924-.418-1.341 0l-1.53 1.53c-.126.126-.507.505-1.113.203-.123-.067-.23-.12-.338-.174-.237-.119-.482-.241-.714-.401-1.414-.88-2.677-2.024-3.974-3.6-.712-.871-1.166-1.594-1.472-2.345-.223-.558.07-.912.24-1.059.252-.251.503-.495.755-.74s.505-.49.757-.742c.461-.482.461-.92-.01-1.41l-1.19-1.191-.419-.426c-.27-.277-.527-.54-.795-.789-.324-.31-.816-.558-1.358-.015l-1.53 1.53c-.383.36-.582.787-.605 1.282-.085 1.034.192 1.969.505 2.828.638 1.754 1.703 3.53 3.166 5.28z"/>
    </g>
</svg>
