<svg id="images-wheel" xmlns="http://www.w3.org/2000/svg" width="352" height="353" viewBox="0 0 352 353">
    <g fill="none" fill-rule="evenodd" opacity=".24">
        <path fill="#455A64" fill-opacity=".002" d="M176 2c62.17 0 119.608 33.164 150.684 87 31.076 53.836 31.076 120.164 0 174S238.17 350 176 350 56.392 316.836 25.316 263c-31.076-53.836-31.076-120.164 0-174S113.83 2 176 2v104.4c-24.865 0-47.833 13.259-60.274 34.8-12.44 21.541-12.44 48.059 0 69.6 12.441 21.541 35.41 34.8 60.274 34.8 24.865 0 47.833-13.259 60.274-34.8 12.44-21.541 12.44-48.059 0-69.6-12.441-21.541-35.41-34.8-60.274-34.8V2z"/>
        <path fill="#282828" d="M178 0c62.17 0 119.608 33.164 150.684 87 31.076 53.836 31.076 120.164 0 174l-90.41-52.2c12.44-21.541 12.44-48.059 0-69.6-12.441-21.541-35.41-34.8-60.274-34.8V0zM326.368 265.2c-31.076 53.836-88.514 87-150.684 87S56.076 319.036 25 265.2l90.41-52.2c12.441 21.541 35.41 34.8 60.274 34.8 24.865 0 47.833-13.259 60.274-34.8l90.41 52.2zM23.307 261c-31.076-53.836-31.076-120.164 0-174C54.384 33.164 111.821 0 173.991 0v104.4c-24.864 0-47.832 13.259-60.273 34.8-12.441 21.541-12.441 48.059 0 69.6L23.308 261z"/>
    </g>
</svg>
