<?xml version="1.0" encoding="UTF-8"?>
<svg id="images-wheel-risk" width="356px" height="362px" viewBox="0 0 356 362" version="1.1" xmlns="http://www.w3.org/2000/svg" xmlns:xlink="http://www.w3.org/1999/xlink">
    <title>Wheel Risk</title>
    <g id="Desktop" stroke="none" stroke-width="1" fill="none" fill-rule="evenodd">
        <g id="D-QTS02-01" transform="translate(-96.000000, -99.000000)">
            <g id="Wheel-Risk" transform="translate(96.000000, 99.000000)">
                <g id="Segments-circle" transform="translate(0.000000, 9.000000)">
                    <g id="Segment-1" transform="translate(178.000000, 0.000000)">
                        <path d="M-1.56319402e-13,0 C62.1702,0 119.6076,33.1644 150.684,87 C181.7604,140.8356 181.7604,207.1644 150.684,261 L60.2736,208.8 C72.7146,187.2588 72.7146,160.7412 60.2736,139.2 C47.8326,117.6588 24.8646,104.4 -1.56319402e-13,104.4 L-1.56319402e-13,0 Z" fill="#313232"></path>
                        <g id="Group" transform="translate(83.000000, 107.000000)" fill="#E57200" fill-rule="nonzero">
                            <g id="ic/riskadjusted-pricing">
                                <path d="M19.5122482,8 C17.9334597,8 16.5102169,8.97507233 15.9064761,10.4703335 C15.3027353,11.9655947 15.6374598,13.6864144 16.7544973,14.8300138 C17.8715349,15.9736132 19.5507806,16.3146535 21.0088502,15.6940361 C22.4669199,15.0734187 23.4165103,13.6134322 23.4146314,11.9951743 C23.4095054,9.78901856 21.6645988,8.00262013 19.5122482,8 Z M19.5122482,15.9855811 C17.3621607,15.9855811 15.6191704,14.1990151 15.6191704,11.9951743 C15.6191704,9.79133348 17.3621607,8.00476751 19.5122482,8.00476751 C21.6623358,8.00476751 23.4053261,9.79133348 23.4053261,11.9951743 C23.4027632,14.197926 21.6612733,15.9829541 19.5122482,15.9855811 Z" id="Shape"></path>
                                <path d="M20.4878049,7 L20.4878049,1.12408759 C20.4878049,0.503271157 20.0510095,0 19.5121951,0 C18.9733807,0 18.5365854,0.503271157 18.5365854,1.12408759 L18.5365854,7 C18.8558764,6.9219754 19.1813673,6.88258897 19.5077605,6.88248175 C19.837098,6.88232434 20.1655532,6.92170979 20.4878049,7 L20.4878049,7 Z" id="Path"></path>
                                <path d="M23.4146341,12.2258274 C23.4044436,10.2711853 22.2878193,8.56327999 20.6823367,8.04672291 C20.6204402,8.04672291 20.5541226,8.0155743 20.4878049,8 C21.9812773,8.37839528 23.1225489,9.79678808 23.3595778,11.5690911 C23.5966068,13.3413941 22.8805343,15.102282 21.5577301,16 L21.5577301,16 C22.7088311,15.2245989 23.4175626,13.7840893 23.4146341,12.2258274 L23.4146341,12.2258274 Z" id="Path"></path>
                                <path d="M15.6129164,12.2386511 C15.6168225,10.1970499 16.8331498,8.43365351 18.5365854,8 C18.4745681,8 18.4125509,8 18.3505337,8.04669261 C16.9039848,8.50441762 15.8348685,9.93687369 15.6410232,11.6770318 C15.447178,13.4171898 16.1667128,15.1229429 17.4645734,16 L17.4645734,16 C16.3180586,15.223517 15.612243,13.7897642 15.6129164,12.2386511 L15.6129164,12.2386511 Z" id="Path"></path>
                                <path d="M20.4878049,8.04390244 C20.1662778,7.98741855 19.8382883,7.95799117 19.5091558,7.95609756 C19.1820302,7.95797442 18.8560538,7.98740398 18.5365854,8.04390244 C18.856486,7.99068291 19.1824577,7.96452368 19.5091558,7.96585366 C19.8378657,7.96450442 20.1658552,7.99066209 20.4878049,8.04390244 Z" id="Path"></path>
                                <path d="M18.5365854,15.9560976 C18.8560538,16.012596 19.1820302,16.0420256 19.5091558,16.0439024 C19.8382883,16.0420088 20.1662778,16.0125814 20.4878049,15.9560976 C20.1658552,16.0093379 19.8378657,16.0354956 19.5091558,16.0341463 C19.1824577,16.0354763 18.856486,16.0093171 18.5365854,15.9560976 Z" id="Path"></path>
                                <path d="M18.5365854,14.7780488 C18.7893558,14.9567761 19.0604391,15.0945406 19.3428744,15.1878049 L19.5121951,15.2317073 C19.1686947,15.1409939 18.8393532,14.9845567 18.5365854,14.7682927 L18.5365854,14.7780488 Z" id="Path"></path>
                                <path d="M20.4878049,15.2268293 C20.5477809,15.2268293 20.6077569,15.2268293 20.6637345,15.1829268 C20.9441795,15.0908145 21.213163,14.9529873 21.4634146,14.7731707 L21.4634146,14.7731707 C21.1597247,14.9858742 20.8304967,15.1389652 20.4878049,15.2268293 L20.4878049,15.2268293 Z" id="Path"></path>
                                <path d="M39.7513262,14.3871539 C39.5704004,14.1659259 39.3106734,14.027907 39.0298996,14.0037878 C38.7491259,13.9796686 38.4705813,14.0714487 38.2562045,14.2587192 L31.7451908,19.8851477 C31.2694303,20.3191702 30.9036626,20.8650074 30.6793137,21.4757622 L29.3095894,25.5856731 L27.7276542,21.139856 C27.569087,20.6848096 27.2313603,20.318798 26.7967322,20.1309685 C26.362104,19.943139 25.8704665,19.9507315 25.4415649,20.1518967 L23.5702514,21.0015417 L22.2969865,16.061745 C21.9067017,16.2669819 21.4915019,16.4181474 21.0623053,16.5112665 C20.9224391,16.5409053 20.7825729,16.5606645 20.6427067,16.5804237 L20.2472229,16.6150022 L19.9964283,16.6150022 C19.9096148,16.6150022 19.8276242,16.6150022 19.7408107,16.6150022 L19.7408107,16.6150022 C19.6089828,16.6150022 19.4787625,16.6051226 19.3501499,16.5853634 C19.2151066,16.5853634 19.0752404,16.5458451 18.9401972,16.5162063 C18.5055565,16.4236666 18.0852904,16.2707669 17.6910471,16.061745 L15.7618579,23.5603564 C15.7388847,23.5968351 15.711317,23.6300532 15.6798673,23.6591524 L14.3824876,23.9950586 C13.6884931,24.2051662 13.0965486,24.6739779 12.7233848,25.3090445 L10.186501,30.0018514 L8.56598198,28.9842533 C8.41933307,28.8616553 8.30217091,28.7061622 8.22355089,28.529792 L5.69631297,20.339609 C5.5677381,19.7635046 5.08554886,19.3419091 4.50986159,19.3022517 C3.93253883,19.2923792 3.41629378,19.668913 3.23659668,20.2309334 L0.0823722603,27.9370164 C-0.0640897518,28.2952747 -0.0128177692,28.7063483 0.216874548,29.0153896 C0.446566865,29.3244309 0.819783787,29.4844893 1.19593811,29.4352723 C1.57209243,29.3860553 1.89403736,29.1350402 2.04049935,28.7767818 L4.34105753,23.1503533 L6.20272515,29.1818451 C6.43014348,29.8455393 6.85955054,30.4169437 7.42776033,30.8119781 L9.40517931,32.101265 C9.80167397,32.3636624 10.2869357,32.4451251 10.744469,32.3260967 C11.2020023,32.2070683 11.5904889,31.8982978 11.8166659,31.4739108 L14.5705835,26.3859202 C14.6571646,26.2722982 14.7698273,26.1823605 14.8985457,26.124111 L16.1911025,25.7882048 C16.9599033,25.5605301 17.56307,24.9483356 17.7923296,24.1630116 L18.9450201,19.7171946 L18.9450201,38.9132447 C18.9450201,39.5134431 19.4200702,40 20.0060742,40 C20.5920782,40 21.0671283,39.5134431 21.0671283,38.9132447 L21.0671283,19.7962313 L21.665177,22.1179358 C21.7762822,22.602583 22.0933268,23.0108659 22.5293664,23.2308196 C22.965406,23.4507732 23.4746717,23.4593101 23.9175054,23.254089 L25.8901014,22.3599858 L28.113492,28.5791899 C28.2735225,29.1470717 28.7714753,29.5455204 29.3481732,29.5671493 C29.9233564,29.550127 30.4194416,29.1484656 30.5683854,28.5791899 L32.6856706,22.2266113 C32.7860846,21.9883719 32.9301584,21.772057 33.1100922,21.5893775 L39.6259289,15.9184909 C40.0708113,15.5297138 40.1267663,14.8463987 39.7513262,14.3871539 Z" id="Path"></path>
                                <path d="M20.3346878,8.07687706 L20.2601468,8.07687706 C20.0133938,8.02450027 19.7620117,7.99876688 19.5100775,8.00004539 C19.2596851,7.99878582 19.0098495,8.02452075 18.764667,8.07687706 L18.6854671,8.07687706 C17.1110417,8.42416275 15.9070254,9.73466038 15.657074,11.3730966 C15.4071227,13.0115328 16.1628985,14.6392598 17.5580338,15.4672249 C17.9079181,15.6799811 18.2885115,15.8338809 18.6854671,15.9231229 L18.764667,15.9231229 C19.0098495,15.9754793 19.2596851,16.0012142 19.5100775,15.9999546 C19.7620117,16.0012331 20.0133938,15.9754997 20.2601468,15.9231229 L20.3346878,15.9231229 C22.1310446,15.5272449 23.4146341,13.8922554 23.4146341,12 C23.4146341,10.1077446 22.1310446,8.47275513 20.3346878,8.07687706 L20.3346878,8.07687706 Z M19.5100775,13.8931783 C18.6321132,13.894322 17.8724573,13.2640717 17.6864803,12.3802251 C17.5005033,11.4963785 17.9386559,10.5987001 18.7382905,10.225297 C19.5379251,9.85189397 20.4821217,10.1040607 21.0048882,10.8306377 C21.5276548,11.5572147 21.4871783,12.5611004 20.9077221,13.2405227 C20.5544537,13.6547358 20.0453328,13.8924786 19.5100775,13.8931783 Z" id="Shape"></path>
                                <path d="M19.4712313,8 L19.553159,8 L19.4712313,8 Z" id="Path"></path>
                                <path d="M20.4492507,8 L20.5263591,8 L20.4492507,8 Z" id="Path"></path>
                                <path d="M20.5263591,16 L20.4492507,16 L20.5263591,16 Z" id="Path"></path>
                                <path d="M19.553159,16 L19.4712313,16 L19.553159,16 Z" id="Path"></path>
                            </g>
                        </g>
                    </g>
                    <g id="Segment-2" transform="translate(25.000000, 213.000000)">
                        <path d="M301.368,52.2 C270.2916,106.0356 212.8542,139.2 150.684,139.2 C88.5138,139.2 31.0764,106.0356 1.98951966e-13,52.2 L90.4104,2.84217094e-14 C102.8514,21.5412 125.8194,34.8 150.684,34.8 C175.5486,34.8 198.5166,21.5412 210.9576,2.84217094e-14 L301.368,52.2 Z" fill="#313232"></path>
                        <g id="Group" transform="translate(131.000000, 63.000000)" fill="#E57200" fill-rule="nonzero">
                            <g id="toolingandanalytics" transform="translate(2.500000, 2.500000)">
                                <path d="M22.675,23.8666667 L22.675,23.8666667 C17.8477425,23.8661488 13.4962592,20.9574163 11.650119,16.497127 C9.80397879,12.0368376 10.8268539,6.90362631 14.2416667,3.49166667 C16.4748284,1.24996453 19.5107954,-0.0070218151 22.675,-2.92616656e-05 L22.675,-2.92616656e-05 C29.265598,-2.92616656e-05 34.6083333,5.34273532 34.6083333,11.9333333 C34.6083333,18.5239313 29.265598,23.8666667 22.675,23.8666667 Z M22.675,1.83333333 C18.5918307,1.8351068 14.9113928,4.29523416 13.3485213,8.06746256 C11.7856498,11.839691 12.6478257,16.1818681 15.5333333,19.0708333 C17.4220433,20.9709324 19.9917319,22.0375107 22.6708333,22.0333456 L22.6708333,22.0333456 C28.2489092,22.0333456 32.7708332,17.5114092 32.7708332,11.9333333 C32.7708332,6.35525742 28.2489092,1.83333333 22.6708333,1.83333333 L22.675,1.83333333 Z" id="Shape"></path>
                                <path d="M3.4625,34.191675 C2.23015592,34.1944136 1.117935,33.4533045 0.645965526,32.3149178 C0.173996056,31.1765311 0.435558391,29.8658583 1.30833333,28.9958333 L9.825,20.4791667 C11.0183386,19.2982376 12.9399948,19.2982376 14.1333333,20.4791667 L14.1916667,20.5375 C15.3475462,21.7411692 15.3159175,23.6519132 14.1208333,24.8166667 L5.6125,33.3 C5.04370529,33.8724718 4.26949929,34.1935573 3.4625,34.191675 Z M11.9708333,21.4208333 C11.6581469,21.4248693 11.3592942,21.5503874 11.1375,21.7708333 L2.60416667,30.2916667 C2.13214332,30.7649207 2.13214332,31.5309126 2.60416667,32.0041667 C3.08535418,32.4565949 3.83547916,32.4565949 4.31666667,32.0041667 L12.8333333,23.5 C13.0671184,23.2752447 13.2007463,22.9659485 13.2041667,22.6416667 C13.2115071,22.3324129 13.0961643,22.0328211 12.8833333,21.8083333 L12.8333333,21.7583333 C12.6020716,21.5357416 12.2917484,21.4143108 11.9708333,21.4208333 Z" id="Shape"></path>
                            </g>
                        </g>
                    </g>
                    <g id="Segment-3">
                        <path d="M23.3073,261 C-7.7691,207.1644 -7.7691,140.8356 23.3073,87 C54.3837,33.1644 111.8211,0 173.9913,0 L173.9913,104.4 C149.1267,104.4 126.1587,117.6588 113.7177,139.2 C101.2767,160.7412 101.2767,187.2588 113.7177,208.8 L23.3073,261 Z" fill="#313232"></path>
                        <g id="Group" transform="translate(45.000000, 107.000000)" fill="#E57200" fill-rule="nonzero">
                            <g id="technology" transform="translate(2.500000, 6.250000)">
                                <path d="M34.9458333,14.1666667 C34.9457122,12.3942359 34.0630302,10.7382308 32.5916667,9.75 C34.5413748,8.44479809 35.4070662,6.0172921 34.7232016,3.77291176 C34.039337,1.52853142 31.9670856,-0.00378089135 29.6208333,-6.98116173e-06 L5.74166667,-6.98116173e-06 C3.39794733,-0.00103730316 1.32910043,1.53043772 0.645707675,3.77231099 C-0.0376850759,6.01418426 0.825069047,8.43930252 2.77083333,9.74583333 C1.28988308,10.7411834 0.406446394,12.4125925 0.418179827,14.1969125 C0.42991326,15.9812325 1.33525449,17.6408789 2.82916667,18.6166667 C0.853814477,19.9034271 -0.0393071228,22.3366199 0.634491686,24.595771 C1.30829049,26.8549222 3.38834775,28.4013551 5.74583333,28.3958481 L29.6208333,28.3958481 C31.9783189,28.4013551 34.0583762,26.8549222 34.732175,24.595771 C35.4059738,22.3366199 34.5128522,19.9034271 32.5375,18.6166667 C34.0381845,17.6333129 34.9433282,15.9608328 34.9458333,14.1666667 Z M5.74166667,1.83333333 L29.6208333,1.83333333 C31.5034384,1.89835714 32.9959951,3.44335569 32.9959951,5.32708333 C32.9959951,7.21081098 31.5034384,8.75580952 29.6208333,8.82083333 L5.74166667,8.82083333 C3.85906163,8.75580952 2.36650492,7.21081098 2.36650492,5.32708333 C2.36650492,3.44335569 3.85906163,1.89835714 5.74166667,1.83333333 Z M29.6208333,26.5625 L5.74166667,26.5625 C3.85906163,26.4974762 2.36650492,24.9524776 2.36650492,23.06875 C2.36650492,21.1850224 3.85906163,19.6400238 5.74166667,19.575 L29.6208333,19.575 C31.5034384,19.6400238 32.9959951,21.1850224 32.9959951,23.06875 C32.9959951,24.9524776 31.5034384,26.4974762 29.6208333,26.5625 L29.6208333,26.5625 Z M29.6208333,17.6583333 L5.74166667,17.6583333 C3.85906163,17.5933095 2.36650492,16.048311 2.36650492,14.1645833 C2.36650492,12.2808557 3.85906163,10.7358571 5.74166667,10.6708333 L29.6208333,10.6708333 C31.5034384,10.7358571 32.9959951,12.2808557 32.9959951,14.1645833 C32.9959951,16.048311 31.5034384,17.5933095 29.6208333,17.6583333 L29.6208333,17.6583333 Z" id="Shape"></path>
                                <path d="M4.50833333,6.25 L17.7958333,6.25 C18.2792701,6.21742523 18.6547598,5.81578295 18.6547598,5.33125 C18.6547598,4.84671705 18.2792701,4.44507477 17.7958333,4.4125 L4.50833333,4.4125 C4.02489661,4.44507477 3.64940691,4.84671705 3.64940691,5.33125 C3.64940691,5.81578295 4.02489661,6.21742523 4.50833333,6.25 Z" id="Path"></path>
                                <path d="M17.7958333,13.2458333 L4.50833333,13.2458333 C4.00207231,13.2458333 3.59166667,13.656239 3.59166667,14.1625 C3.59166667,14.668761 4.00207231,15.0791667 4.50833333,15.0791667 L17.7958333,15.0791667 C18.3020944,15.0791667 18.7125,14.668761 18.7125,14.1625 C18.7125,13.656239 18.3020944,13.2458333 17.7958333,13.2458333 L17.7958333,13.2458333 Z" id="Path"></path>
                                <path d="M17.7958333,22.1541667 L4.50833333,22.1541667 C4.00207231,22.1541667 3.59166667,22.5645723 3.59166667,23.0708333 C3.59166667,23.5770944 4.00207231,23.9875 4.50833333,23.9875 L17.7958333,23.9875 C18.3020944,23.9875 18.7125,23.5770944 18.7125,23.0708333 C18.7125,22.5645723 18.3020944,22.1541667 17.7958333,22.1541667 L17.7958333,22.1541667 Z" id="Path"></path>
                                <path d="M25.6083333,6.91250549 C26.2511724,6.91418504 26.831573,6.52802205 27.0783558,5.93443711 C27.3251387,5.34085217 27.189584,4.65703084 26.7350266,4.20247344 C26.2804692,3.74791604 25.5966478,3.6123613 25.0030629,3.85914417 C24.4094779,4.10592704 24.023315,4.68632763 24.0249945,5.32916667 C24.0272897,6.20266735 24.7348326,6.91021034 25.6083333,6.91250549 Z" id="Path"></path>
                                <path d="M30.1416667,6.9125 C30.7841292,6.9125 31.3632511,6.52526345 31.6087198,5.93154365 C31.8541885,5.33782386 31.7176033,4.65468612 31.2627172,4.20099388 C30.807831,3.74730164 30.1243367,3.61251228 29.531264,3.8595405 C28.9381914,4.10656871 28.5524804,4.68670637 28.5541612,5.32916667 C28.5564636,6.20429108 29.2665392,6.9125 30.1416667,6.9125 Z" id="Path"></path>
                                <path d="M25.6083333,12.5791612 C24.9662495,12.5791612 24.3873894,12.9659486 24.1416746,13.5591567 C23.8959597,14.1523648 24.0317795,14.8351769 24.4858013,15.2891987 C24.9398231,15.7432205 25.6226352,15.8790403 26.2158433,15.6333254 C26.8090514,15.3876106 27.1958388,14.8087505 27.1958388,14.1666667 C27.1969437,13.7452961 27.0300463,13.3408638 26.7320912,13.0429088 C26.4341362,12.7449537 26.0297039,12.5780563 25.6083333,12.5791612 L25.6083333,12.5791612 Z" id="Path"></path>
                                <path d="M30.1416667,12.5791667 C29.2649146,12.5791667 28.5541667,13.2899146 28.5541667,14.1666667 C28.5541667,15.0434187 29.2649146,15.7541667 30.1416667,15.7541667 C31.0184187,15.7541667 31.7291667,15.0434187 31.7291667,14.1666667 C31.7291667,13.2899146 31.0184187,12.5791667 30.1416667,12.5791667 L30.1416667,12.5791667 Z" id="Path"></path>
                                <path d="M25.6083333,21.4833278 C24.7315813,21.4833278 24.0208333,22.1940813 24.0208333,23.0708333 C24.0208333,23.9475854 24.7315813,24.6583333 25.6083333,24.6583333 C26.4850854,24.6583333 27.1958388,23.9475854 27.1958388,23.0708333 C27.1969437,22.6494627 27.0300463,22.2450305 26.7320912,21.9470754 C26.4341362,21.6491204 26.0297039,21.482223 25.6083333,21.4833278 L25.6083333,21.4833278 Z" id="Path"></path>
                                <path d="M30.1416667,21.4833333 C29.2649146,21.4833333 28.5541667,22.1940813 28.5541667,23.0708333 C28.5541667,23.9475854 29.2649146,24.6583333 30.1416667,24.6583333 C31.0184187,24.6583333 31.7291667,23.9475854 31.7291667,23.0708333 C31.7291667,22.6498022 31.5619127,22.2460153 31.2641987,21.9483013 C30.9664847,21.6505873 30.5626978,21.4833333 30.1416667,21.4833333 Z" id="Path"></path>
                            </g>
                        </g>
                    </g>
                </g>
                <g id="pieSegActive1" transform="translate(161.000000, 0.000000)">
                    <path d="M0,0 C69.6769838,0 134.049702,37.2305333 168.878444,97.6666667 C203.707185,158.1028 203.707185,232.563867 168.878444,293 L67.5513776,234.4 C81.4945747,210.217733 81.4945747,180.448933 67.5513776,156.266667 C53.6081804,132.0844 27.8668933,117.2 0,117.2 L0,0 Z" id="Segment" fill="#EB7227"></path>
                    <path d="M116.980723,119.551807 C115.344893,119.551807 113.870228,120.537467 113.244674,122.048964 C112.61912,123.560461 112.965938,125.299965 114.123334,126.455982 C115.280731,127.611999 117.020647,127.956742 118.531397,127.329386 C120.042147,126.70203 121.026046,125.226191 121.024099,123.590361 C121.018788,121.360251 119.210838,119.554456 116.980723,119.551807 Z M116.980723,127.624096 C114.752953,127.624096 112.946988,125.818132 112.946988,123.590361 C112.946988,121.362591 114.752953,119.556627 116.980723,119.556627 C119.208493,119.556627 121.014458,121.362591 121.014458,123.590361 C121.011802,125.817031 119.207392,127.621441 116.980723,127.624096 Z" id="Shape" fill="#FFFFFF" fill-rule="nonzero"></path>
                    <path d="M118.045783,118.60241 L118.045783,113.060241 C118.045783,112.474686 117.571097,112 116.985542,112 C116.399987,112 115.925301,112.474686 115.925301,113.060241 L115.925301,118.60241 C116.27229,118.528817 116.626016,118.491667 116.980723,118.491566 C117.338629,118.491418 117.695577,118.528566 118.045783,118.60241 L118.045783,118.60241 Z" id="Path" fill="#FFFFFF" fill-rule="nonzero"></path>
                    <path d="M121.024106,123.590361 C121.012998,121.775841 119.795829,120.19037 118.045783,119.710843 C117.978313,119.710843 117.906024,119.681928 117.833735,119.66747 C119.461685,120.018739 120.705721,121.335452 120.964092,122.980704 C121.222464,124.625957 120.441914,126.260612 119,127.093976 L119,127.093976 C120.25475,126.374161 121.027298,125.036917 121.024106,123.590361 L121.024106,123.590361 Z" id="Path" fill="#FFFFFF" fill-rule="nonzero"></path>
                    <path d="M112.946988,123.590361 C112.951237,121.693886 114.274506,120.05584 116.127711,119.653012 C116.060241,119.653012 115.992771,119.653012 115.925301,119.696386 C114.351569,120.121573 113.188454,121.452204 112.977566,123.068664 C112.766677,124.685125 113.549475,126.269625 114.961446,127.084337 L114.961446,127.084337 C113.714127,126.36305 112.946255,125.031215 112.946988,123.590361 L112.946988,123.590361 Z" id="Path" fill="#FFFFFF" fill-rule="nonzero"></path>
                    <path d="M117.756627,119.638554 C117.50171,119.582751 117.241669,119.553678 116.980723,119.551807 C116.721367,119.553661 116.462923,119.582736 116.209639,119.638554 C116.463266,119.585976 116.721706,119.560132 116.980723,119.561446 C117.241334,119.560113 117.501375,119.585955 117.756627,119.638554 Z" id="Path" fill="#FFFFFF" fill-rule="nonzero"></path>
                    <path d="M116.209639,127.546988 C116.462923,127.602806 116.721367,127.631881 116.980723,127.633735 C117.241669,127.631864 117.50171,127.602791 117.756627,127.546988 C117.501375,127.599587 117.241334,127.625429 116.980723,127.624096 C116.721706,127.62541 116.463266,127.599566 116.209639,127.546988 Z" id="Path" fill="#FFFFFF" fill-rule="nonzero"></path>
                    <path d="M114.956627,127.084337 C115.258794,127.260911 115.582853,127.397016 115.920482,127.489157 L116.122892,127.53253 C115.712264,127.44291 115.318562,127.288357 114.956627,127.074699 L114.956627,127.084337 Z" id="Path" fill="#FFFFFF" fill-rule="nonzero"></path>
                    <path d="M117.833735,127.53253 C117.906024,127.53253 117.978313,127.53253 118.045783,127.489157 C118.383804,127.398154 118.70801,127.261987 119.009639,127.084337 L119.009639,127.084337 C118.643601,127.294478 118.246782,127.445725 117.833735,127.53253 L117.833735,127.53253 Z" id="Path" fill="#FFFFFF" fill-rule="nonzero"></path>
                    <path d="M136.720482,126.481928 C136.539695,126.266097 136.280167,126.131446 135.999608,126.107915 C135.71905,126.084384 135.440718,126.173925 135.226506,126.356627 L128.720482,131.845783 C128.245086,132.269216 127.879599,132.801737 127.655422,133.39759 L126.286747,137.407229 L124.706024,133.06988 C124.547578,132.625935 124.210111,132.268853 123.775815,132.085606 C123.34152,131.90236 122.85026,131.909767 122.421687,132.106024 L120.551807,132.93494 L119.279518,128.115663 C118.889532,128.315892 118.474651,128.46337 118.045783,128.554217 C117.906024,128.583133 117.766265,128.60241 117.626506,128.621687 L117.231325,128.655422 L116.980723,128.655422 C116.893976,128.655422 116.812048,128.655422 116.725301,128.655422 L116.725301,128.655422 C116.593574,128.655422 116.463454,128.645783 116.33494,128.626506 C116.2,128.626506 116.060241,128.587952 115.925301,128.559036 C115.490994,128.468754 115.07105,128.319585 114.677108,128.115663 L112.749398,135.431325 C112.726442,135.466914 112.698895,135.499322 112.66747,135.527711 L111.371084,135.855422 C110.677622,136.060403 110.086131,136.517777 109.713253,137.137349 L107.178313,141.715663 L105.559036,140.722892 C105.4125,140.603285 105.295427,140.451585 105.216867,140.279518 L102.691566,132.289157 C102.56309,131.727108 102.08127,131.315798 101.506024,131.277108 C100.929144,131.267477 100.413294,131.634824 100.233735,132.183133 L97.0819277,139.701205 C96.9355779,140.050722 96.9868106,140.451767 97.2163269,140.753268 C97.4458432,141.05477 97.8187741,141.210923 98.1946402,141.162907 C98.5705063,141.114891 98.8922045,140.87 99.0385542,140.520482 L101.337349,135.031325 L103.19759,140.915663 C103.424834,141.563164 103.853912,142.120628 104.421687,142.506024 L106.39759,143.763855 C106.793781,144.019851 107.278671,144.099326 107.735854,143.983202 C108.193036,143.867077 108.581225,143.56584 108.807229,143.151807 L111.559036,138.187952 C111.645551,138.077102 111.758127,137.989359 111.886747,137.93253 L113.178313,137.604819 C113.946525,137.382699 114.549229,136.785441 114.778313,136.019277 L115.93012,131.681928 L115.93012,150.409639 C115.93012,150.995193 116.404807,151.46988 116.990361,151.46988 C117.575916,151.46988 118.050602,150.995193 118.050602,150.409639 L118.050602,131.759036 L118.648193,134.024096 C118.759213,134.496919 119.076014,134.895241 119.51172,135.109828 C119.947425,135.324416 120.456301,135.332744 120.898795,135.13253 L122.86988,134.260241 L125.091566,140.327711 C125.251474,140.881738 125.749045,141.270465 126.325301,141.291566 C126.900044,141.274959 127.395749,140.883098 127.544578,140.327711 L129.660241,134.13012 C129.760578,133.897694 129.904541,133.686656 130.084337,133.508434 L136.595181,127.975904 C137.039722,127.596612 137.095634,126.929968 136.720482,126.481928 Z" id="Path" fill="#FFFFFF" fill-rule="nonzero"></path>
                    <path d="M117.833735,119.653012 L117.756627,119.653012 C117.501375,119.600413 117.241334,119.574571 116.980723,119.575855 C116.721706,119.57459 116.463266,119.600434 116.209639,119.653012 L116.127711,119.653012 C114.499058,120.00177 113.253572,121.317825 112.995012,122.963209 C112.736452,124.608593 113.518258,126.243223 114.961446,127.074699 C115.323381,127.288357 115.717083,127.44291 116.127711,127.53253 L116.209639,127.53253 C116.463266,127.585108 116.721706,127.610953 116.980723,127.609688 C117.241334,127.610972 117.501375,127.585129 117.756627,127.53253 L117.833735,127.53253 C119.691963,127.134973 121.019763,125.493051 121.019763,123.592771 C121.019763,121.692491 119.691963,120.050569 117.833735,119.653012 L117.833735,119.653012 Z M116.980723,125.493977 C116.072519,125.495126 115.286699,124.862203 115.094316,123.974609 C114.901934,123.087014 115.355177,122.185529 116.182354,121.810542 C117.00953,121.435556 117.986247,121.688792 118.527019,122.41845 C119.067791,123.148108 119.02592,124.156251 118.426506,124.838554 C118.06107,125.254524 117.534414,125.493275 116.980723,125.493977 Z" id="Shape" fill="#FFFFFF" fill-rule="nonzero"></path>
                    <path d="M116.127711,119.653012 L116.209639,119.653012 L116.127711,119.653012 Z" id="Path" fill="#FFFFFF" fill-rule="nonzero"></path>
                    <path d="M117.756627,119.638554 L117.833735,119.638554 L117.756627,119.638554 Z" id="Path" fill="#FFFFFF" fill-rule="nonzero"></path>
                    <path d="M117.833735,127.53253 L117.756627,127.53253 L117.833735,127.53253 Z" id="Path" fill="#FFFFFF" fill-rule="nonzero"></path>
                    <path d="M116.209639,127.546988 L116.127711,127.546988 L116.209639,127.546988 Z" id="Path" fill="#FFFFFF" fill-rule="nonzero"></path>
                </g>
            </g>
        </g>
    </g>
</svg>