<?xml version="1.0" encoding="UTF-8"?>
<svg id="images-wheel-unactive" width="352px" height="353px" viewBox="0 0 352 353" version="1.1" xmlns="http://www.w3.org/2000/svg" xmlns:xlink="http://www.w3.org/1999/xlink">
    <title>Segments circle</title>
    <g id="Symbols" stroke="none" stroke-width="1" fill="none" fill-rule="evenodd">
        <g id="Segments-circle">
            <g id="Segment-1" transform="translate(178.000000, 0.000000)">
                <path d="M-1.56319402e-13,0 C62.1702,0 119.6076,33.1644 150.684,87 C181.7604,140.8356 181.7604,207.1644 150.684,261 L60.2736,208.8 C72.7146,187.2588 72.7146,160.7412 60.2736,139.2 C47.8326,117.6588 24.8646,104.4 -1.56319402e-13,104.4 L-1.56319402e-13,0 Z" fill="#313232"></path>
                <g id="Group" transform="translate(83.000000, 107.000000)" fill="#E57200" fill-rule="nonzero">
                    <g id="ic/riskadjusted-pricing">
                        <path d="M19.5122482,8 C17.9334597,8 16.5102169,8.97507233 15.9064761,10.4703335 C15.3027353,11.9655947 15.6374598,13.6864144 16.7544973,14.8300138 C17.8715349,15.9736132 19.5507806,16.3146535 21.0088502,15.6940361 C22.4669199,15.0734187 23.4165103,13.6134322 23.4146314,11.9951743 C23.4095054,9.78901856 21.6645988,8.00262013 19.5122482,8 Z M19.5122482,15.9855811 C17.3621607,15.9855811 15.6191704,14.1990151 15.6191704,11.9951743 C15.6191704,9.79133348 17.3621607,8.00476751 19.5122482,8.00476751 C21.6623358,8.00476751 23.4053261,9.79133348 23.4053261,11.9951743 C23.4027632,14.197926 21.6612733,15.9829541 19.5122482,15.9855811 Z" id="Shape"></path>
                        <path d="M20.4878049,7 L20.4878049,1.12408759 C20.4878049,0.503271157 20.0510095,0 19.5121951,0 C18.9733807,0 18.5365854,0.503271157 18.5365854,1.12408759 L18.5365854,7 C18.8558764,6.9219754 19.1813673,6.88258897 19.5077605,6.88248175 C19.837098,6.88232434 20.1655532,6.92170979 20.4878049,7 L20.4878049,7 Z" id="Path"></path>
                        <path d="M23.4146341,12.2258274 C23.4044436,10.2711853 22.2878193,8.56327999 20.6823367,8.04672291 C20.6204402,8.04672291 20.5541226,8.0155743 20.4878049,8 C21.9812773,8.37839528 23.1225489,9.79678808 23.3595778,11.5690911 C23.5966068,13.3413941 22.8805343,15.102282 21.5577301,16 L21.5577301,16 C22.7088311,15.2245989 23.4175626,13.7840893 23.4146341,12.2258274 L23.4146341,12.2258274 Z" id="Path"></path>
                        <path d="M15.6129164,12.2386511 C15.6168225,10.1970499 16.8331498,8.43365351 18.5365854,8 C18.4745681,8 18.4125509,8 18.3505337,8.04669261 C16.9039848,8.50441762 15.8348685,9.93687369 15.6410232,11.6770318 C15.447178,13.4171898 16.1667128,15.1229429 17.4645734,16 L17.4645734,16 C16.3180586,15.223517 15.612243,13.7897642 15.6129164,12.2386511 L15.6129164,12.2386511 Z" id="Path"></path>
                        <path d="M20.4878049,8.04390244 C20.1662778,7.98741855 19.8382883,7.95799117 19.5091558,7.95609756 C19.1820302,7.95797442 18.8560538,7.98740398 18.5365854,8.04390244 C18.856486,7.99068291 19.1824577,7.96452368 19.5091558,7.96585366 C19.8378657,7.96450442 20.1658552,7.99066209 20.4878049,8.04390244 Z" id="Path"></path>
                        <path d="M18.5365854,15.9560976 C18.8560538,16.012596 19.1820302,16.0420256 19.5091558,16.0439024 C19.8382883,16.0420088 20.1662778,16.0125814 20.4878049,15.9560976 C20.1658552,16.0093379 19.8378657,16.0354956 19.5091558,16.0341463 C19.1824577,16.0354763 18.856486,16.0093171 18.5365854,15.9560976 Z" id="Path"></path>
                        <path d="M18.5365854,14.7780488 C18.7893558,14.9567761 19.0604391,15.0945406 19.3428744,15.1878049 L19.5121951,15.2317073 C19.1686947,15.1409939 18.8393532,14.9845567 18.5365854,14.7682927 L18.5365854,14.7780488 Z" id="Path"></path>
                        <path d="M20.4878049,15.2268293 C20.5477809,15.2268293 20.6077569,15.2268293 20.6637345,15.1829268 C20.9441795,15.0908145 21.213163,14.9529873 21.4634146,14.7731707 L21.4634146,14.7731707 C21.1597247,14.9858742 20.8304967,15.1389652 20.4878049,15.2268293 L20.4878049,15.2268293 Z" id="Path"></path>
                        <path d="M39.7513262,14.3871539 C39.5704004,14.1659259 39.3106734,14.027907 39.0298996,14.0037878 C38.7491259,13.9796686 38.4705813,14.0714487 38.2562045,14.2587192 L31.7451908,19.8851477 C31.2694303,20.3191702 30.9036626,20.8650074 30.6793137,21.4757622 L29.3095894,25.5856731 L27.7276542,21.139856 C27.569087,20.6848096 27.2313603,20.318798 26.7967322,20.1309685 C26.362104,19.943139 25.8704665,19.9507315 25.4415649,20.1518967 L23.5702514,21.0015417 L22.2969865,16.061745 C21.9067017,16.2669819 21.4915019,16.4181474 21.0623053,16.5112665 C20.9224391,16.5409053 20.7825729,16.5606645 20.6427067,16.5804237 L20.2472229,16.6150022 L19.9964283,16.6150022 C19.9096148,16.6150022 19.8276242,16.6150022 19.7408107,16.6150022 L19.7408107,16.6150022 C19.6089828,16.6150022 19.4787625,16.6051226 19.3501499,16.5853634 C19.2151066,16.5853634 19.0752404,16.5458451 18.9401972,16.5162063 C18.5055565,16.4236666 18.0852904,16.2707669 17.6910471,16.061745 L15.7618579,23.5603564 C15.7388847,23.5968351 15.711317,23.6300532 15.6798673,23.6591524 L14.3824876,23.9950586 C13.6884931,24.2051662 13.0965486,24.6739779 12.7233848,25.3090445 L10.186501,30.0018514 L8.56598198,28.9842533 C8.41933307,28.8616553 8.30217091,28.7061622 8.22355089,28.529792 L5.69631297,20.339609 C5.5677381,19.7635046 5.08554886,19.3419091 4.50986159,19.3022517 C3.93253883,19.2923792 3.41629378,19.668913 3.23659668,20.2309334 L0.0823722603,27.9370164 C-0.0640897518,28.2952747 -0.0128177692,28.7063483 0.216874548,29.0153896 C0.446566865,29.3244309 0.819783787,29.4844893 1.19593811,29.4352723 C1.57209243,29.3860553 1.89403736,29.1350402 2.04049935,28.7767818 L4.34105753,23.1503533 L6.20272515,29.1818451 C6.43014348,29.8455393 6.85955054,30.4169437 7.42776033,30.8119781 L9.40517931,32.101265 C9.80167397,32.3636624 10.2869357,32.4451251 10.744469,32.3260967 C11.2020023,32.2070683 11.5904889,31.8982978 11.8166659,31.4739108 L14.5705835,26.3859202 C14.6571646,26.2722982 14.7698273,26.1823605 14.8985457,26.124111 L16.1911025,25.7882048 C16.9599033,25.5605301 17.56307,24.9483356 17.7923296,24.1630116 L18.9450201,19.7171946 L18.9450201,38.9132447 C18.9450201,39.5134431 19.4200702,40 20.0060742,40 C20.5920782,40 21.0671283,39.5134431 21.0671283,38.9132447 L21.0671283,19.7962313 L21.665177,22.1179358 C21.7762822,22.602583 22.0933268,23.0108659 22.5293664,23.2308196 C22.965406,23.4507732 23.4746717,23.4593101 23.9175054,23.254089 L25.8901014,22.3599858 L28.113492,28.5791899 C28.2735225,29.1470717 28.7714753,29.5455204 29.3481732,29.5671493 C29.9233564,29.550127 30.4194416,29.1484656 30.5683854,28.5791899 L32.6856706,22.2266113 C32.7860846,21.9883719 32.9301584,21.772057 33.1100922,21.5893775 L39.6259289,15.9184909 C40.0708113,15.5297138 40.1267663,14.8463987 39.7513262,14.3871539 Z" id="Path"></path>
                        <path d="M20.3346878,8.07687706 L20.2601468,8.07687706 C20.0133938,8.02450027 19.7620117,7.99876688 19.5100775,8.00004539 C19.2596851,7.99878582 19.0098495,8.02452075 18.764667,8.07687706 L18.6854671,8.07687706 C17.1110417,8.42416275 15.9070254,9.73466038 15.657074,11.3730966 C15.4071227,13.0115328 16.1628985,14.6392598 17.5580338,15.4672249 C17.9079181,15.6799811 18.2885115,15.8338809 18.6854671,15.9231229 L18.764667,15.9231229 C19.0098495,15.9754793 19.2596851,16.0012142 19.5100775,15.9999546 C19.7620117,16.0012331 20.0133938,15.9754997 20.2601468,15.9231229 L20.3346878,15.9231229 C22.1310446,15.5272449 23.4146341,13.8922554 23.4146341,12 C23.4146341,10.1077446 22.1310446,8.47275513 20.3346878,8.07687706 L20.3346878,8.07687706 Z M19.5100775,13.8931783 C18.6321132,13.894322 17.8724573,13.2640717 17.6864803,12.3802251 C17.5005033,11.4963785 17.9386559,10.5987001 18.7382905,10.225297 C19.5379251,9.85189397 20.4821217,10.1040607 21.0048882,10.8306377 C21.5276548,11.5572147 21.4871783,12.5611004 20.9077221,13.2405227 C20.5544537,13.6547358 20.0453328,13.8924786 19.5100775,13.8931783 Z" id="Shape"></path>
                        <path d="M19.4712313,8 L19.553159,8 L19.4712313,8 Z" id="Path"></path>
                        <path d="M20.4492507,8 L20.5263591,8 L20.4492507,8 Z" id="Path"></path>
                        <path d="M20.5263591,16 L20.4492507,16 L20.5263591,16 Z" id="Path"></path>
                        <path d="M19.553159,16 L19.4712313,16 L19.553159,16 Z" id="Path"></path>
                    </g>
                </g>
            </g>
            <g id="Segment-2" transform="translate(25.000000, 213.000000)">
                <path d="M301.368,52.2 C270.2916,106.0356 212.8542,139.2 150.684,139.2 C88.5138,139.2 31.0764,106.0356 1.98951966e-13,52.2 L90.4104,2.84217094e-14 C102.8514,21.5412 125.8194,34.8 150.684,34.8 C175.5486,34.8 198.5166,21.5412 210.9576,2.84217094e-14 L301.368,52.2 Z" fill="#313232"></path>
                <g id="Group" transform="translate(131.000000, 63.000000)" fill="#E57200" fill-rule="nonzero">
                    <g id="toolingandanalytics" transform="translate(2.500000, 2.500000)">
                        <path d="M22.675,23.8666667 L22.675,23.8666667 C17.8477425,23.8661488 13.4962592,20.9574163 11.650119,16.497127 C9.80397879,12.0368376 10.8268539,6.90362631 14.2416667,3.49166667 C16.4748284,1.24996453 19.5107954,-0.0070218151 22.675,-2.92616656e-05 L22.675,-2.92616656e-05 C29.265598,-2.92616656e-05 34.6083333,5.34273532 34.6083333,11.9333333 C34.6083333,18.5239313 29.265598,23.8666667 22.675,23.8666667 Z M22.675,1.83333333 C18.5918307,1.8351068 14.9113928,4.29523416 13.3485213,8.06746256 C11.7856498,11.839691 12.6478257,16.1818681 15.5333333,19.0708333 C17.4220433,20.9709324 19.9917319,22.0375107 22.6708333,22.0333456 L22.6708333,22.0333456 C28.2489092,22.0333456 32.7708332,17.5114092 32.7708332,11.9333333 C32.7708332,6.35525742 28.2489092,1.83333333 22.6708333,1.83333333 L22.675,1.83333333 Z" id="Shape"></path>
                        <path d="M3.4625,34.191675 C2.23015592,34.1944136 1.117935,33.4533045 0.645965526,32.3149178 C0.173996056,31.1765311 0.435558391,29.8658583 1.30833333,28.9958333 L9.825,20.4791667 C11.0183386,19.2982376 12.9399948,19.2982376 14.1333333,20.4791667 L14.1916667,20.5375 C15.3475462,21.7411692 15.3159175,23.6519132 14.1208333,24.8166667 L5.6125,33.3 C5.04370529,33.8724718 4.26949929,34.1935573 3.4625,34.191675 Z M11.9708333,21.4208333 C11.6581469,21.4248693 11.3592942,21.5503874 11.1375,21.7708333 L2.60416667,30.2916667 C2.13214332,30.7649207 2.13214332,31.5309126 2.60416667,32.0041667 C3.08535418,32.4565949 3.83547916,32.4565949 4.31666667,32.0041667 L12.8333333,23.5 C13.0671184,23.2752447 13.2007463,22.9659485 13.2041667,22.6416667 C13.2115071,22.3324129 13.0961643,22.0328211 12.8833333,21.8083333 L12.8333333,21.7583333 C12.6020716,21.5357416 12.2917484,21.4143108 11.9708333,21.4208333 Z" id="Shape"></path>
                    </g>
                </g>
            </g>
            <g id="Segment-3">
                <path d="M23.3073,261 C-7.7691,207.1644 -7.7691,140.8356 23.3073,87 C54.3837,33.1644 111.8211,0 173.9913,0 L173.9913,104.4 C149.1267,104.4 126.1587,117.6588 113.7177,139.2 C101.2767,160.7412 101.2767,187.2588 113.7177,208.8 L23.3073,261 Z" fill="#313232"></path>
                <g id="Group" transform="translate(45.000000, 107.000000)" fill="#E57200" fill-rule="nonzero">
                    <g id="technology" transform="translate(2.500000, 6.250000)">
                        <path d="M34.9458333,14.1666667 C34.9457122,12.3942359 34.0630302,10.7382308 32.5916667,9.75 C34.5413748,8.44479809 35.4070662,6.0172921 34.7232016,3.77291176 C34.039337,1.52853142 31.9670856,-0.00378089135 29.6208333,-6.98116173e-06 L5.74166667,-6.98116173e-06 C3.39794733,-0.00103730316 1.32910043,1.53043772 0.645707675,3.77231099 C-0.0376850759,6.01418426 0.825069047,8.43930252 2.77083333,9.74583333 C1.28988308,10.7411834 0.406446394,12.4125925 0.418179827,14.1969125 C0.42991326,15.9812325 1.33525449,17.6408789 2.82916667,18.6166667 C0.853814477,19.9034271 -0.0393071228,22.3366199 0.634491686,24.595771 C1.30829049,26.8549222 3.38834775,28.4013551 5.74583333,28.3958481 L29.6208333,28.3958481 C31.9783189,28.4013551 34.0583762,26.8549222 34.732175,24.595771 C35.4059738,22.3366199 34.5128522,19.9034271 32.5375,18.6166667 C34.0381845,17.6333129 34.9433282,15.9608328 34.9458333,14.1666667 Z M5.74166667,1.83333333 L29.6208333,1.83333333 C31.5034384,1.89835714 32.9959951,3.44335569 32.9959951,5.32708333 C32.9959951,7.21081098 31.5034384,8.75580952 29.6208333,8.82083333 L5.74166667,8.82083333 C3.85906163,8.75580952 2.36650492,7.21081098 2.36650492,5.32708333 C2.36650492,3.44335569 3.85906163,1.89835714 5.74166667,1.83333333 Z M29.6208333,26.5625 L5.74166667,26.5625 C3.85906163,26.4974762 2.36650492,24.9524776 2.36650492,23.06875 C2.36650492,21.1850224 3.85906163,19.6400238 5.74166667,19.575 L29.6208333,19.575 C31.5034384,19.6400238 32.9959951,21.1850224 32.9959951,23.06875 C32.9959951,24.9524776 31.5034384,26.4974762 29.6208333,26.5625 L29.6208333,26.5625 Z M29.6208333,17.6583333 L5.74166667,17.6583333 C3.85906163,17.5933095 2.36650492,16.048311 2.36650492,14.1645833 C2.36650492,12.2808557 3.85906163,10.7358571 5.74166667,10.6708333 L29.6208333,10.6708333 C31.5034384,10.7358571 32.9959951,12.2808557 32.9959951,14.1645833 C32.9959951,16.048311 31.5034384,17.5933095 29.6208333,17.6583333 L29.6208333,17.6583333 Z" id="Shape"></path>
                        <path d="M4.50833333,6.25 L17.7958333,6.25 C18.2792701,6.21742523 18.6547598,5.81578295 18.6547598,5.33125 C18.6547598,4.84671705 18.2792701,4.44507477 17.7958333,4.4125 L4.50833333,4.4125 C4.02489661,4.44507477 3.64940691,4.84671705 3.64940691,5.33125 C3.64940691,5.81578295 4.02489661,6.21742523 4.50833333,6.25 Z" id="Path"></path>
                        <path d="M17.7958333,13.2458333 L4.50833333,13.2458333 C4.00207231,13.2458333 3.59166667,13.656239 3.59166667,14.1625 C3.59166667,14.668761 4.00207231,15.0791667 4.50833333,15.0791667 L17.7958333,15.0791667 C18.3020944,15.0791667 18.7125,14.668761 18.7125,14.1625 C18.7125,13.656239 18.3020944,13.2458333 17.7958333,13.2458333 L17.7958333,13.2458333 Z" id="Path"></path>
                        <path d="M17.7958333,22.1541667 L4.50833333,22.1541667 C4.00207231,22.1541667 3.59166667,22.5645723 3.59166667,23.0708333 C3.59166667,23.5770944 4.00207231,23.9875 4.50833333,23.9875 L17.7958333,23.9875 C18.3020944,23.9875 18.7125,23.5770944 18.7125,23.0708333 C18.7125,22.5645723 18.3020944,22.1541667 17.7958333,22.1541667 L17.7958333,22.1541667 Z" id="Path"></path>
                        <path d="M25.6083333,6.91250549 C26.2511724,6.91418504 26.831573,6.52802205 27.0783558,5.93443711 C27.3251387,5.34085217 27.189584,4.65703084 26.7350266,4.20247344 C26.2804692,3.74791604 25.5966478,3.6123613 25.0030629,3.85914417 C24.4094779,4.10592704 24.023315,4.68632763 24.0249945,5.32916667 C24.0272897,6.20266735 24.7348326,6.91021034 25.6083333,6.91250549 Z" id="Path"></path>
                        <path d="M30.1416667,6.9125 C30.7841292,6.9125 31.3632511,6.52526345 31.6087198,5.93154365 C31.8541885,5.33782386 31.7176033,4.65468612 31.2627172,4.20099388 C30.807831,3.74730164 30.1243367,3.61251228 29.531264,3.8595405 C28.9381914,4.10656871 28.5524804,4.68670637 28.5541612,5.32916667 C28.5564636,6.20429108 29.2665392,6.9125 30.1416667,6.9125 Z" id="Path"></path>
                        <path d="M25.6083333,12.5791612 C24.9662495,12.5791612 24.3873894,12.9659486 24.1416746,13.5591567 C23.8959597,14.1523648 24.0317795,14.8351769 24.4858013,15.2891987 C24.9398231,15.7432205 25.6226352,15.8790403 26.2158433,15.6333254 C26.8090514,15.3876106 27.1958388,14.8087505 27.1958388,14.1666667 C27.1969437,13.7452961 27.0300463,13.3408638 26.7320912,13.0429088 C26.4341362,12.7449537 26.0297039,12.5780563 25.6083333,12.5791612 L25.6083333,12.5791612 Z" id="Path"></path>
                        <path d="M30.1416667,12.5791667 C29.2649146,12.5791667 28.5541667,13.2899146 28.5541667,14.1666667 C28.5541667,15.0434187 29.2649146,15.7541667 30.1416667,15.7541667 C31.0184187,15.7541667 31.7291667,15.0434187 31.7291667,14.1666667 C31.7291667,13.2899146 31.0184187,12.5791667 30.1416667,12.5791667 L30.1416667,12.5791667 Z" id="Path"></path>
                        <path d="M25.6083333,21.4833278 C24.7315813,21.4833278 24.0208333,22.1940813 24.0208333,23.0708333 C24.0208333,23.9475854 24.7315813,24.6583333 25.6083333,24.6583333 C26.4850854,24.6583333 27.1958388,23.9475854 27.1958388,23.0708333 C27.1969437,22.6494627 27.0300463,22.2450305 26.7320912,21.9470754 C26.4341362,21.6491204 26.0297039,21.482223 25.6083333,21.4833278 L25.6083333,21.4833278 Z" id="Path"></path>
                        <path d="M30.1416667,21.4833333 C29.2649146,21.4833333 28.5541667,22.1940813 28.5541667,23.0708333 C28.5541667,23.9475854 29.2649146,24.6583333 30.1416667,24.6583333 C31.0184187,24.6583333 31.7291667,23.9475854 31.7291667,23.0708333 C31.7291667,22.6498022 31.5619127,22.2460153 31.2641987,21.9483013 C30.9664847,21.6505873 30.5626978,21.4833333 30.1416667,21.4833333 Z" id="Path"></path>
                    </g>
                </g>
            </g>
        </g>
    </g>
</svg>