<svg xmlns="http://www.w3.org/2000/svg" width="45" height="45" viewBox="0 0 45 45">
    <g fill="#EB7227" fill-rule="evenodd">
        <rect width="45" height="45" fill-opacity=".1" rx="4"/>
        <path fill-rule="nonzero" d="M12.725 15c-.264 0-.513.063-.737.165l10.054 9.392c.211.198.705.198.916 0l10.054-9.392c-.224-.102-.473-.165-.737-.165h-19.55zm-1.554.955c-.106.216-.171.456-.171.712v11.666c0 .924.77 1.667 1.725 1.667h19.55c.956 0 1.725-.743 1.725-1.667V16.667c0-.256-.065-.496-.17-.712l-10.063 9.4c-.702.657-1.832.657-2.534 0l-10.062-9.4z"/>
    </g>
</svg>
