<svg xmlns="http://www.w3.org/2000/svg" width="213" height="279" viewBox="0 0 213 279">
    <g fill="none" fill-rule="evenodd">
        <path fill="#EB7227" d="M82.931 300.779c-29.447-63.15-22.91-137.225 17.145-194.332s107.54-88.576 177.032-82.551l-10.287 116.599c-27.809-2.417-54.789 10.163-70.813 33.02-16.023 22.857-18.635 52.477-6.858 77.733l-106.219 49.53z" transform="translate(-64.305 -22.633)"/>
        <path fill="#FFF" fill-rule="nonzero" d="M167.243 155.823c0-2.025-1.01-3.918-2.69-5.047 2.228-1.492 3.217-4.266 2.435-6.831-.781-2.565-3.15-4.317-5.83-4.312h-27.291c-2.679-.001-5.043 1.749-5.824 4.311-.781 2.562.205 5.334 2.428 6.827-1.692 1.137-2.702 3.048-2.688 5.087.013 2.04 1.048 3.936 2.755 5.051-2.258 1.47-3.278 4.251-2.508 6.833s3.147 4.35 5.841 4.343h27.286c2.694.007 5.072-1.76 5.842-4.343.77-2.582-.251-5.362-2.509-6.833 1.715-1.124 2.75-3.035 2.753-5.086zm-33.376-14.095h27.29c2.152.074 3.857 1.84 3.857 3.993 0 2.153-1.705 3.918-3.857 3.993h-27.29c-2.152-.075-3.858-1.84-3.858-3.993 0-2.153 1.706-3.919 3.858-3.993zm27.29 28.262h-27.29c-2.152-.074-3.858-1.84-3.858-3.993 0-2.153 1.706-3.918 3.858-3.993h27.29c2.152.075 3.857 1.84 3.857 3.993 0 2.153-1.705 3.919-3.857 3.993zm0-10.176h-27.29c-2.152-.075-3.858-1.84-3.858-3.993 0-2.153 1.706-3.919 3.858-3.993h27.29c2.152.074 3.857 1.84 3.857 3.993 0 2.153-1.705 3.918-3.857 3.993z" transform="translate(-64.305 -22.633)"/>
        <path fill="#FFF" fill-rule="nonzero" d="M132.457 146.776h15.186c.552-.038.981-.497.981-1.05 0-.554-.429-1.013-.981-1.05h-15.186c-.552.037-.982.496-.982 1.05 0 .553.43 1.012.982 1.05zM147.643 154.77h-15.186c-.579 0-1.048.47-1.048 1.049 0 .578.47 1.047 1.048 1.047h15.186c.578 0 1.047-.469 1.047-1.047 0-.58-.469-1.048-1.047-1.048zM147.643 164.952h-15.186c-.579 0-1.048.469-1.048 1.047 0 .58.47 1.048 1.048 1.048h15.186c.578 0 1.047-.469 1.047-1.048 0-.578-.469-1.047-1.047-1.047zM156.571 147.533c.735.002 1.398-.44 1.68-1.118.282-.678.127-1.46-.392-1.98-.52-.519-1.301-.674-1.98-.392-.678.282-1.12.946-1.117 1.68.002.999.811 1.807 1.81 1.81zM161.752 147.533c.735 0 1.396-.443 1.677-1.121.28-.679.124-1.46-.395-1.978-.52-.519-1.301-.673-1.98-.39-.677.282-1.118.945-1.116 1.68.003 1 .814 1.809 1.814 1.809zM156.571 154.009c-.733 0-1.395.442-1.676 1.12-.28.678-.125 1.458.393 1.977.52.52 1.3.674 1.978.393.678-.28 1.12-.942 1.12-1.676 0-.481-.19-.943-.53-1.284-.34-.34-.803-.531-1.285-.53zM161.752 154.009c-1.002 0-1.814.812-1.814 1.814s.812 1.815 1.814 1.815 1.815-.813 1.815-1.815-.813-1.814-1.815-1.814zM156.571 164.185c-1.002 0-1.814.812-1.814 1.814s.812 1.815 1.814 1.815 1.815-.813 1.815-1.815c0-.481-.19-.943-.53-1.284-.34-.34-.803-.531-1.285-.53zM161.752 164.185c-1.002 0-1.814.812-1.814 1.814s.812 1.815 1.814 1.815 1.815-.813 1.815-1.815c0-.48-.192-.942-.532-1.282-.34-.34-.802-.532-1.283-.532z" transform="translate(-64.305 -22.633)"/>
    </g>
</svg>
