<svg xmlns="http://www.w3.org/2000/svg" width="339" height="157" viewBox="0 0 339 157">
    <g fill="none" fill-rule="evenodd">
        <path fill="#EB7227" d="M352.123 147.313c-34.839 60.342-99.268 97.475-169.021 97.42-69.754-.056-134.24-37.287-169.164-97.667l101.413-58.452c13.97 24.166 39.751 39.05 67.665 39.066 27.914.016 53.675-14.834 67.609-38.967l101.498 58.6z" transform="translate(-13.57 -88.633)"/>
        <path fill="#FFF" fill-rule="nonzero" d="M184.485 189.909c-5.517 0-10.49-3.325-12.6-8.422-2.11-5.098-.941-10.964 2.962-14.864 2.552-2.562 6.021-3.998 9.638-3.99 7.532 0 13.638 6.106 13.638 13.638s-6.106 13.638-13.638 13.638zm0-25.18c-4.667.001-8.873 2.813-10.66 7.124-1.785 4.31-.8 9.273 2.498 12.575 2.158 2.172 5.095 3.39 8.157 3.386 6.375 0 11.543-5.168 11.543-11.543 0-6.375-5.168-11.543-11.543-11.543h.005z" transform="translate(-13.57 -88.633)"/>
        <path fill="#FFF" fill-rule="nonzero" d="M162.527 201.709c-1.408.003-2.679-.844-3.218-2.145-.54-1.3-.24-2.799.757-3.793l9.733-9.733c1.364-1.35 3.56-1.35 4.924 0l.066.066c1.321 1.376 1.285 3.56-.08 4.89l-9.724 9.696c-.65.654-1.535 1.021-2.458 1.019zm9.724-14.595c-.357.004-.699.148-.952.4l-9.752 9.738c-.54.54-.54 1.416 0 1.957.55.517 1.407.517 1.957 0l9.733-9.719c.267-.257.42-.61.424-.981.008-.353-.124-.696-.367-.952l-.057-.058c-.264-.254-.619-.393-.986-.385z" transform="translate(-13.57 -88.633)"/>
    </g>
</svg>
